<svg width="311" height="64" viewBox="0 0 311 64" fill="none" xmlns="http://www.w3.org/2000/svg">
<rect width="311" height="64" fill="white"/>
<path d="M42.4885 29.3872H45.7917C45.7093 29.0363 45.507 28.7284 45.1848 28.4634C44.8625 28.1984 44.5008 27.98 44.0998 27.8081C43.6988 27.6326 43.0632 27.493 42.1931 27.3892C41.323 27.2853 40.6999 27.2334 40.3239 27.2334C39.8298 27.2048 39.1548 27.2495 38.299 27.3677C37.4432 27.4858 36.7414 27.6756 36.1936 27.937C35.6493 28.1984 35.2769 28.4777 35.0764 28.7749C34.8758 29.0685 34.7756 29.3908 34.7756 29.7417C34.7756 30.0926 34.9618 30.422 35.3342 30.73C35.7102 31.0379 36.2383 31.2563 36.9187 31.3853C37.599 31.5142 38.8218 31.6019 40.5871 31.6484C40.7984 31.6413 41.0007 31.6681 41.194 31.729C41.391 31.7863 41.545 31.8704 41.656 31.9814C41.767 32.0889 41.8225 32.1999 41.8225 32.3145C41.8225 32.4255 41.767 32.5365 41.656 32.6475C41.5485 32.7549 41.3964 32.8372 41.1994 32.8945C41.0025 32.9482 40.6999 33.0055 40.2917 33.0664C39.9838 33.0592 39.7242 33.0449 39.5129 33.0234C39.3016 33.002 39.1172 32.9536 38.9597 32.8784C38.8021 32.8032 38.6571 32.694 38.5246 32.5508C38.3921 32.404 38.3116 32.2625 38.2829 32.1265H34.7756C34.7756 32.3771 34.8544 32.5991 35.0119 32.7925C35.173 32.9823 35.404 33.1882 35.7048 33.4102C36.0092 33.6286 36.3278 33.7969 36.6608 33.915C36.9939 34.0296 37.3913 34.1227 37.8532 34.1943C38.3151 34.266 38.9955 34.3304 39.8942 34.3877C40.7035 34.3877 41.3015 34.3734 41.6882 34.3447C42.0785 34.3161 42.4688 34.2588 42.8591 34.1729C43.2494 34.0833 43.697 33.9079 44.2019 33.6465C44.7103 33.3815 45.0666 33.1183 45.2707 32.8569C45.4748 32.5955 45.6037 32.3341 45.6574 32.0728C45.7147 31.8078 45.6861 31.5464 45.5715 31.2886C45.4605 31.0272 45.3101 30.8141 45.1203 30.6494C44.9305 30.4811 44.662 30.3254 44.3147 30.1821C43.9673 30.0353 43.6862 29.9476 43.4714 29.9189C43.2565 29.8867 42.9522 29.8563 42.5583 29.8276C42.1644 29.7954 41.5521 29.7668 40.7214 29.7417C40.3132 29.7417 39.9981 29.7435 39.7761 29.7471C39.5541 29.7471 39.3446 29.7184 39.1477 29.6611C38.9507 29.6003 38.7985 29.5179 38.6911 29.4141C38.5873 29.3066 38.5336 29.1956 38.53 29.0811C38.5336 28.9665 38.5891 28.8555 38.6965 28.748C38.8075 28.637 38.9615 28.5547 39.1584 28.501C39.3589 28.4437 39.7063 28.4007 40.2004 28.3721C40.7196 28.4043 41.1009 28.4491 41.3444 28.5063C41.5915 28.5636 41.7938 28.6496 41.9514 28.7642C42.1125 28.8787 42.2915 29.0864 42.4885 29.3872ZM47.7027 27.4268H58.4772V29.4624H54.6583V34.2642H51.4195V29.4624H47.7027V27.4268ZM60.3828 27.4214V34.2642H63.3047V31.874H66.5649C67.0197 31.8848 67.2596 32.062 67.2847 32.4058C67.3097 32.7459 67.3509 33.0933 67.4082 33.4478C67.4655 33.8022 67.7842 34.0744 68.3643 34.2642H71.2539C71.0785 34.1066 70.9889 33.9258 70.9854 33.7217C71.2253 32.0674 70.4482 31.2134 68.6543 31.1597V31.1382C70.2083 31.0093 71.0444 30.4041 71.1626 29.3228C71.0623 28.2091 70.1493 27.5754 68.4233 27.4214H60.3828ZM67.231 28.8931C67.7179 28.8931 68.0223 29.1509 68.144 29.6665C68.0832 30.132 67.7896 30.3647 67.2632 30.3647H63.3047V28.8931H67.231ZM73.2563 27.4268V34.2642H82.5053V32.5508L76.2104 32.5562V31.4873L81.8017 31.498V30.0586H76.2104V30.0532V29.0381H82.5053V27.4268H73.2563ZM88.8314 31.6753H91.6189L90.2064 29.1992L88.8314 31.6753ZM88.1224 27.4268H92.2366L95.9695 34.2642H93.0154L92.3387 33.0396H88.074L87.3973 34.2642H84.4109L88.1224 27.4268ZM97.8752 27.4268H101.973L104.417 30.9985L106.872 27.4268H110.895V34.2642H108.338V29.9458L105.572 34.2642H103.214L100.464 29.9458V34.2642H97.8752V27.4268ZM112.8 27.4268V34.2642H115.991V27.4268H112.8ZM117.896 27.4268V34.2642H120.518V29.9995L125.131 34.2642H128.977V27.4268H126.394V31.5571L121.613 27.4268H117.896ZM141.722 34.3179L141.19 33.3564C140.961 33.5176 140.68 33.6644 140.347 33.7969C140.017 33.9258 139.666 34.0386 139.294 34.1353C138.925 34.2284 138.547 34.3018 138.161 34.3555C137.774 34.4092 137.412 34.436 137.076 34.436C136.213 34.436 135.416 34.377 134.685 34.2588C133.959 34.137 133.321 33.9526 132.773 33.7056C132.229 33.4585 131.794 33.1488 131.468 32.7764C131.142 32.404 130.956 31.9671 130.91 31.4658C130.91 31.4229 130.908 31.3745 130.904 31.3208C130.901 31.2671 130.899 31.2152 130.899 31.165C130.892 31.1149 130.888 31.0666 130.888 31.02C130.888 30.9699 130.888 30.918 130.888 30.8643C130.888 30.807 130.89 30.7461 130.893 30.6816C130.897 30.6172 130.899 30.5545 130.899 30.4937V30.311C130.931 29.8742 131.098 29.4731 131.398 29.1079C131.703 28.7391 132.129 28.4222 132.677 28.1572C133.225 27.8887 133.891 27.6792 134.675 27.5288C135.462 27.3784 136.359 27.3032 137.366 27.3032C138.103 27.3032 138.794 27.348 139.439 27.4375C140.087 27.527 140.663 27.672 141.168 27.8726C141.673 28.0695 142.094 28.3255 142.431 28.6406C142.767 28.9521 142.993 29.3335 143.107 29.7847V29.7739C143.118 29.7918 143.125 29.8205 143.129 29.8599C143.132 29.8993 143.138 29.9351 143.145 29.9673H139.364C139.346 29.9243 139.333 29.8867 139.326 29.8545C139.319 29.8223 139.308 29.7936 139.294 29.7686V29.7847C139.176 29.5018 138.95 29.2816 138.617 29.124C138.284 28.9665 137.84 28.8877 137.285 28.8877C136.576 28.8877 135.953 29.0059 135.416 29.2422C134.882 29.4749 134.569 29.7775 134.476 30.1499C134.383 30.5223 134.336 30.7533 134.336 30.8428C134.336 30.9395 134.338 31.063 134.342 31.2134C134.345 31.3638 134.388 31.507 134.471 31.6431C134.557 31.7756 134.669 31.9134 134.809 32.0566C134.952 32.1963 135.176 32.3395 135.48 32.4863C135.785 32.6331 136.075 32.7119 136.35 32.7227C136.626 32.7334 136.94 32.7388 137.29 32.7388C138.511 32.771 139.267 32.4451 139.557 31.7612H138.848V31.2188H143.306C143.313 31.3835 143.317 31.5661 143.317 31.7666C143.317 31.9671 143.317 32.1354 143.317 32.2715C143.324 32.4434 143.329 32.6242 143.333 32.814C143.34 33.0037 143.345 33.1899 143.349 33.3726C143.353 33.5552 143.354 33.7288 143.354 33.8936C143.354 34.0583 143.354 34.1997 143.354 34.3179H141.722ZM157.462 31.1812L157.935 30.8267H160.529L158.552 32.2822L160.454 34.1729H157.854L157.161 33.5176C156.66 33.804 156.239 34.0135 155.899 34.146C155.559 34.2749 155.212 34.3394 154.857 34.3394C154.61 34.3394 154.392 34.3071 154.202 34.2427C154.012 34.1746 153.821 34.069 153.627 33.9258C153.434 33.779 153.276 33.5874 153.154 33.3511C153.033 33.1147 152.972 32.8265 152.972 32.4863C152.972 32.3753 153.024 32.2106 153.128 31.9922C153.231 31.7738 153.366 31.5929 153.53 31.4497C153.699 31.3029 154.048 31.1203 154.578 30.9019C154.231 30.644 153.974 30.4006 153.81 30.1714C153.649 29.9422 153.568 29.6361 153.568 29.2529C153.568 28.8662 153.658 28.5547 153.837 28.3184C154.019 28.082 154.245 27.903 154.513 27.7812C154.782 27.6559 155.07 27.5736 155.378 27.5342C155.686 27.4948 156.001 27.4751 156.323 27.4751C156.474 27.4751 156.642 27.4787 156.828 27.4858C157.018 27.4894 157.21 27.5091 157.403 27.5449C157.596 27.5771 157.784 27.6237 157.967 27.6846C158.153 27.7454 158.318 27.8314 158.461 27.9424C158.604 28.0534 158.719 28.1948 158.805 28.3667C158.894 28.535 158.939 28.7409 158.939 28.9844C158.939 29.2565 158.885 29.4821 158.778 29.6611C158.671 29.8366 158.44 30.0371 158.085 30.2627C157.734 30.4883 157.392 30.6602 157.059 30.7783L157.462 31.1812ZM155.287 31.6431C155.104 31.7505 154.974 31.8239 154.895 31.8633C154.816 31.9027 154.741 31.9474 154.669 31.9976C154.598 32.0441 154.54 32.0978 154.497 32.1587C154.454 32.2196 154.433 32.2769 154.433 32.3306C154.433 32.4774 154.504 32.5973 154.648 32.6904C154.794 32.7835 154.968 32.8301 155.169 32.8301C155.348 32.8301 155.52 32.7925 155.684 32.7173C155.853 32.6421 155.996 32.5633 156.114 32.481L155.287 31.6431ZM155.416 28.9736C155.416 29.1383 155.477 29.2816 155.598 29.4033C155.724 29.5215 155.93 29.6969 156.216 29.9297C156.628 29.6898 156.905 29.5072 157.049 29.3818C157.195 29.2565 157.269 29.1204 157.269 28.9736C157.269 28.7803 157.186 28.6478 157.022 28.5762C156.857 28.501 156.631 28.4634 156.345 28.4634C156.026 28.4634 155.792 28.5046 155.641 28.5869C155.491 28.6693 155.416 28.7982 155.416 28.9736ZM169.921 27.4268V34.2642H175.48C179.404 34.3179 181.379 33.0789 181.404 30.5474C181.279 28.5959 179.759 27.5557 176.844 27.4268H169.921ZM175.394 29.1616C177.31 29.1938 178.264 29.6898 178.257 30.6494C178.246 31.8704 177.369 32.4756 175.625 32.4648H173.025L173.031 29.1616H175.394ZM189.524 27.2871C190.573 27.2871 191.592 27.4411 192.58 27.749C193.569 28.057 194.344 28.4956 194.906 29.0649C195.468 29.6343 195.749 30.2305 195.749 30.8535C195.749 31.473 195.475 32.0656 194.928 32.6313C194.383 33.1935 193.615 33.6322 192.623 33.9473C191.635 34.2624 190.602 34.4199 189.524 34.4199C188.454 34.4199 187.424 34.2624 186.436 33.9473C185.448 33.6322 184.68 33.1935 184.132 32.6313C183.584 32.0656 183.31 31.473 183.31 30.8535C183.31 30.2305 183.587 29.6343 184.142 29.0649C184.701 28.4956 185.476 28.057 186.468 27.749C187.46 27.4411 188.479 27.2871 189.524 27.2871ZM189.605 29.0381C189.111 29.0381 188.633 29.1204 188.171 29.2852C187.709 29.4463 187.347 29.6737 187.086 29.9673C186.824 30.2609 186.694 30.5706 186.694 30.8965C186.694 31.2188 186.821 31.5267 187.075 31.8203C187.333 32.1104 187.695 32.3377 188.16 32.5024C188.626 32.6672 189.107 32.7495 189.605 32.7495C190.103 32.7495 190.584 32.6672 191.05 32.5024C191.515 32.3377 191.875 32.1104 192.129 31.8203C192.384 31.5267 192.511 31.2188 192.511 30.8965C192.511 30.5706 192.378 30.2609 192.113 29.9673C191.852 29.6737 191.49 29.4463 191.028 29.2852C190.566 29.1204 190.092 29.0381 189.605 29.0381ZM197.655 27.4268H200.308L201.463 31.917L202.999 27.4268H205.357L206.904 31.917L208.059 27.4268H210.712L208.908 34.2642H205.357L204.186 30.832L203.01 34.2642H199.46L197.655 27.4268ZM212.623 27.4268V34.2642H215.244V29.9995L219.858 34.2642H223.704V27.4268H221.12V31.5571L216.34 27.4268H212.623ZM225.615 34.2642H234.021V32.2769H228.972V27.4268H225.615V34.2642ZM242.146 27.2871C243.195 27.2871 244.214 27.4411 245.202 27.749C246.19 28.057 246.966 28.4956 247.528 29.0649C248.09 29.6343 248.371 30.2305 248.371 30.8535C248.371 31.473 248.097 32.0656 247.549 32.6313C247.005 33.1935 246.237 33.6322 245.245 33.9473C244.257 34.2624 243.224 34.4199 242.146 34.4199C241.075 34.4199 240.046 34.2624 239.058 33.9473C238.069 33.6322 237.301 33.1935 236.753 32.6313C236.206 32.0656 235.932 31.473 235.932 30.8535C235.932 30.2305 236.209 29.6343 236.764 29.0649C237.323 28.4956 238.098 28.057 239.09 27.749C240.082 27.4411 241.1 27.2871 242.146 27.2871ZM242.227 29.0381C241.732 29.0381 241.254 29.1204 240.792 29.2852C240.331 29.4463 239.969 29.6737 239.708 29.9673C239.446 30.2609 239.315 30.5706 239.315 30.8965C239.315 31.2188 239.443 31.5267 239.697 31.8203C239.955 32.1104 240.316 32.3377 240.782 32.5024C241.247 32.6672 241.729 32.7495 242.227 32.7495C242.724 32.7495 243.206 32.6672 243.671 32.5024C244.137 32.3377 244.497 32.1104 244.751 31.8203C245.005 31.5267 245.132 31.2188 245.132 30.8965C245.132 30.5706 245 30.2609 244.735 29.9673C244.473 29.6737 244.112 29.4463 243.65 29.2852C243.188 29.1204 242.714 29.0381 242.227 29.0381ZM254.697 31.6753H257.485L256.072 29.1992L254.697 31.6753ZM253.988 27.4268H258.102L261.835 34.2642H258.881L258.204 33.0396H253.94L253.263 34.2642H250.277L253.988 27.4268ZM263.741 27.4268V34.2642H269.3C273.225 34.3179 275.199 33.0789 275.224 30.5474C275.099 28.5959 273.579 27.5557 270.664 27.4268H263.741ZM269.214 29.1616C271.13 29.1938 272.084 29.6898 272.077 30.6494C272.066 31.8704 271.189 32.4756 269.445 32.4648H266.846L266.851 29.1616H269.214Z" fill="black"/>
</svg>
