<svg width="112" height="14" viewBox="0 0 112 14" fill="none" xmlns="http://www.w3.org/2000/svg">
<path d="M0.0800781 1.23047H7.53125L11.9746 7.72461L16.4375 1.23047H23.752V13.6621H19.1035V5.81055L14.0742 13.6621H9.78711L4.78711 5.81055V13.6621H0.0800781V1.23047ZM40.5156 0.976562C42.4232 0.976562 44.2754 1.25651 46.0723 1.81641C47.8691 2.3763 49.2786 3.17383 50.3008 4.20898C51.3229 5.24414 51.834 6.32812 51.834 7.46094C51.834 8.58724 51.3359 9.66471 50.3398 10.6934C49.3503 11.7155 47.9538 12.513 46.1504 13.0859C44.3535 13.6589 42.4753 13.9453 40.5156 13.9453C38.569 13.9453 36.6973 13.6589 34.9004 13.0859C33.1035 12.513 31.707 11.7155 30.7109 10.6934C29.7148 9.66471 29.2168 8.58724 29.2168 7.46094C29.2168 6.32812 29.7214 5.24414 30.7305 4.20898C31.7461 3.17383 33.1556 2.3763 34.959 1.81641C36.7624 1.25651 38.6146 0.976562 40.5156 0.976562ZM40.6621 4.16016C39.7637 4.16016 38.8945 4.3099 38.0547 4.60938C37.2148 4.90234 36.5573 5.31576 36.082 5.84961C35.6068 6.38346 35.3691 6.94661 35.3691 7.53906C35.3691 8.125 35.6003 8.6849 36.0625 9.21875C36.5312 9.74609 37.1888 10.1595 38.0352 10.459C38.8815 10.7585 39.7572 10.9082 40.6621 10.9082C41.5671 10.9082 42.4427 10.7585 43.2891 10.459C44.1354 10.1595 44.7897 9.74609 45.252 9.21875C45.7142 8.6849 45.9453 8.125 45.9453 7.53906C45.9453 6.94661 45.7044 6.38346 45.2227 5.84961C44.7474 5.31576 44.0898 4.90234 43.25 4.60938C42.4102 4.3099 41.5475 4.16016 40.6621 4.16016ZM71.5957 13.6621H64.0859L57.2988 1.23047H62.6699L67.8457 10.2246L72.9922 1.23047H78.3633L71.5957 13.6621ZM83.8379 1.23047V13.6621H89.6387V1.23047H83.8379ZM95.1035 1.23047V13.6621H111.92V10.5469L100.475 10.5566V8.61328L110.641 8.63281V6.01562H100.475V6.00586V4.16016H111.92V1.23047H95.1035Z" fill="white"/>
</svg>
