<svg xmlns="http://www.w3.org/2000/svg" width="574.89" height="136.27" viewBox="0 0 574.89 136.27">
  <g id="Group_15" data-name="Group 15" transform="translate(-7729.62 -1855.61)">
    <path id="Path_10" data-name="Path 10" d="M2762.73,1411.06V1547.3h-40.06v-85.53a140.4,140.4,0,0,1-25.46,13v-33.63q26.82-17.42,32.95-30.11Z" transform="translate(5541.78 444.58)" fill="#fff"/>
    <path id="Path_11" data-name="Path 11" d="M2219.65,1470.34l42.23,36.49v-36.49h21.83v60.41h-33L2210,1493.07v37.68h-22.16v-60.41Z" transform="translate(5541.78 444.58)" fill="#fff"/>
    <path id="Path_12" data-name="Path 12" d="M2346.73,1469.11a85.2,85.2,0,0,1,26.2,4.08q12.71,4.08,19.94,11.62t7.23,15.81q0,8.2-7,15.68t-19.78,11.7a86.281,86.281,0,0,1-53.06,0q-12.72-4.17-19.76-11.65t-7-15.68q0-8.26,7.16-15.81t19.91-11.62A85.484,85.484,0,0,1,2346.73,1469.11Zm-12,17.63a22.45,22.45,0,0,0-9.58,6,11.45,11.45,0,0,0-.08,16.34,22.258,22.258,0,0,0,9.57,6,38.3,38.3,0,0,0,25.53,0,22,22,0,0,0,9.53-6,11.46,11.46,0,0,0-.11-16.34,22.748,22.748,0,0,0-9.61-6,38,38,0,0,0-25.25,0Z" transform="translate(5541.78 444.58)" fill="#fff"/>
    <path id="Path_13" data-name="Path 13" d="M2419.43,1519.22a15.736,15.736,0,0,1,4.77.73,8.761,8.761,0,0,1,3.66,2.09,3.68,3.68,0,0,1,0,5.63,8.54,8.54,0,0,1-3.61,2.06,16.33,16.33,0,0,1-9.72,0,8.54,8.54,0,0,1-3.61-2.06,3.687,3.687,0,0,1,.08-5.67,8.505,8.505,0,0,1,3.63-2.09A15.91,15.91,0,0,1,2419.43,1519.22Z" transform="translate(5541.78 444.58)" fill="#fff"/>
  </g>
</svg>
