<svg width="192" height="16" viewBox="0 0 192 16" fill="none" xmlns="http://www.w3.org/2000/svg">
<path d="M0.283592 0.464844V15.3945H6.65859V10.1797H13.7719C14.7641 10.2031 15.2875 10.5898 15.3422 11.3398C15.3969 12.082 15.4867 12.8398 15.6117 13.6133C15.7367 14.3867 16.432 14.9805 17.6977 15.3945H24.0023C23.6195 15.0508 23.4242 14.6562 23.4164 14.2109C23.9398 10.6016 22.2445 8.73828 18.3305 8.62109V8.57422C21.7211 8.29297 23.5453 6.97266 23.8031 4.61328C23.5844 2.18359 21.5922 0.800781 17.8266 0.464844H0.283592ZM15.225 3.67578C16.2875 3.67578 16.9516 4.23828 17.2172 5.36328C17.0844 6.37891 16.4437 6.88672 15.2953 6.88672H6.65859V3.67578H15.225ZM30.7711 0.476562V15.3945H50.9508V11.6562L37.2164 11.668V9.33594L49.4156 9.35938V6.21875H37.2164V6.20703V3.99219H50.9508V0.476562H30.7711ZM57.5086 15.3945H75.8484V11.0586H64.8328V0.476562H57.5086V15.3945ZM82.418 0.476562V15.3945H102.598V11.6562L88.8633 11.668V9.33594L101.062 9.35938V6.21875H88.8633V6.20703V3.99219H102.598V0.476562H82.418ZM118.8 9.74609H124.882L121.8 4.34375L118.8 9.74609ZM117.253 0.476562H126.23L134.374 15.3945H127.929L126.452 12.7227H117.148L115.671 15.3945H109.155L117.253 0.476562ZM157.76 4.75391H164.967C164.788 3.98828 164.346 3.31641 163.643 2.73828C162.94 2.16016 162.151 1.68359 161.276 1.30859C160.401 0.925781 159.014 0.621094 157.116 0.394531C155.217 0.167969 153.858 0.0546875 153.038 0.0546875C151.959 -0.0078125 150.487 0.0898438 148.62 0.347656C146.752 0.605469 145.221 1.01953 144.026 1.58984C142.838 2.16016 142.026 2.76953 141.588 3.41797C141.151 4.05859 140.932 4.76172 140.932 5.52734C140.932 6.29297 141.338 7.01172 142.151 7.68359C142.971 8.35547 144.123 8.83203 145.608 9.11328C147.092 9.39453 149.76 9.58594 153.612 9.6875C154.073 9.67188 154.514 9.73047 154.936 9.86328C155.366 9.98828 155.702 10.1719 155.944 10.4141C156.186 10.6484 156.307 10.8906 156.307 11.1406C156.307 11.3828 156.186 11.625 155.944 11.8672C155.709 12.1016 155.377 12.2812 154.948 12.4062C154.518 12.5234 153.858 12.6484 152.967 12.7812C152.295 12.7656 151.729 12.7344 151.268 12.6875C150.807 12.6406 150.405 12.5352 150.061 12.3711C149.717 12.207 149.401 11.9688 149.112 11.6562C148.823 11.3359 148.647 11.0273 148.584 10.7305H140.932C140.932 11.2773 141.104 11.7617 141.448 12.1836C141.799 12.5977 142.303 13.0469 142.959 13.5312C143.623 14.0078 144.319 14.375 145.045 14.6328C145.772 14.8828 146.639 15.0859 147.647 15.2422C148.655 15.3984 150.139 15.5391 152.1 15.6641C153.866 15.6641 155.17 15.6328 156.014 15.5703C156.866 15.5078 157.717 15.3828 158.569 15.1953C159.42 15 160.397 14.6172 161.498 14.0469C162.608 13.4688 163.385 12.8945 163.83 12.3242C164.276 11.7539 164.557 11.1836 164.674 10.6133C164.799 10.0352 164.737 9.46484 164.487 8.90234C164.245 8.33203 163.916 7.86719 163.502 7.50781C163.088 7.14062 162.502 6.80078 161.745 6.48828C160.987 6.16797 160.373 5.97656 159.905 5.91406C159.436 5.84375 158.772 5.77734 157.913 5.71484C157.053 5.64453 155.717 5.58203 153.905 5.52734C153.014 5.52734 152.327 5.53125 151.842 5.53906C151.358 5.53906 150.901 5.47656 150.471 5.35156C150.041 5.21875 149.709 5.03906 149.475 4.8125C149.248 4.57812 149.131 4.33594 149.123 4.08594C149.131 3.83594 149.252 3.59375 149.487 3.35938C149.729 3.11719 150.065 2.9375 150.495 2.82031C150.932 2.69531 151.69 2.60156 152.768 2.53906C153.901 2.60938 154.733 2.70703 155.264 2.83203C155.803 2.95703 156.245 3.14453 156.588 3.39453C156.94 3.64453 157.33 4.09766 157.76 4.75391ZM171.537 0.476562V15.3945H191.716V11.6562L177.982 11.668V9.33594L190.181 9.35938V6.21875H177.982V6.20703V3.99219H191.716V0.476562H171.537Z" fill="white"/>
</svg>
