<svg xmlns="http://www.w3.org/2000/svg" width="431.77" height="63.304" viewBox="0 0 431.77 63.304">
  <g id="Group_16" data-name="Group 16" transform="translate(-7742.87 -2166.396)">
    <rect id="Rectangle_19" data-name="Rectangle 19" width="26.15" height="60.41" transform="translate(7857.15 2168.24)" fill="#fff"/>
    <path id="Path_14" data-name="Path 14" d="M413.26,1469.66H352.09v60.41h49.12q52,.71,52.34-32.84Q451.89,1471.37,413.26,1469.66Zm-10.77,44.51H377.41v-29.19h23q25.38.43,25.29,13.15-.1,16.19-23.21,16.04Z" transform="translate(7390.78 698.58)" fill="#fff"/>
    <path id="Path_15" data-name="Path 15" d="M1530.79,1509.24l-33.19,60.87h10.3l33.2-60.87Z" transform="translate(6614.43 659)" fill="#fff"/>
    <path id="Path_16" data-name="Path 16" d="M1549.9,1509.24l-33.19,60.87h10.3l33.2-60.87Z" transform="translate(6614.43 659)" fill="#fff"/>
    <path id="Path_17" data-name="Path 17" d="M1459.02,1530.22h-40.9v-20.98H1393.1v60.41h25.02v-23.96l40.9.09v23.87h25.02v-60.41h-25.02Z" transform="translate(6614.43 659)" fill="#fff"/>
    <path id="Path_18" data-name="Path 18" d="M599.28,1498.1a26.109,26.109,0,0,0-7.12-4.12,32.045,32.045,0,0,0-7.45-2.33c-1.9-.27-4.58-.54-8.07-.81s-8.88-.51-16.22-.73h-5c-5.64-.21-14.12-1.29-14.41-5.85a4.44,4.44,0,0,1,1.5-3,9,9,0,0,1,4.08-2.19,30.826,30.826,0,0,1,4.27-.72c15.11-1.14,21.62,4.11,24,6.92.38.51.76,1.06,1.15,1.66h29.18l-.62-2-.3-.68c-2.26-4.21-10-12.35-36.32-15.64q-7.35-.76-11.07-.76a96.988,96.988,0,0,0-17.89,1.18q-11.34,1.57-18.58,5t-9.89,7.38a15,15,0,0,0-2.66,8.57q0,4.65,5,8.73t14,5.79q9,1.71,32.41,2.33a16.428,16.428,0,0,1,5.39.68,9.8,9.8,0,0,1,4,2.23,4.22,4.22,0,0,1,1.47,3,3.39,3.39,0,0,1-.48,1.66c-2.35,5-12.21,5.24-16.42,5.12h-1.97a18.11,18.11,0,0,1-6-1.52c-.15-.06-.3-.11-.44-.18a11.546,11.546,0,0,1-2.36-1.52l-.12-.1c-.23-.19-.45-.39-.67-.6s-.3-.29-.44-.44-.17-.16-.25-.26a8.37,8.37,0,0,1-2.06-3.45l-.08-.27h-31A8.9,8.9,0,0,0,510,1517a33.826,33.826,0,0,0,6.12,5.46,32.693,32.693,0,0,0,8.42,4.46,59.706,59.706,0,0,0,10.53,2.49q6.13.94,18,1.71,10.73,0,15.87-.38a71.1,71.1,0,0,0,10.32-1.55,50.217,50.217,0,0,0,11.89-4.65q6.72-3.48,9.42-6.95a17.122,17.122,0,0,0,3.44-7,11.19,11.19,0,0,0-.76-6.93,15.819,15.819,0,0,0-3.97-5.56Z" transform="translate(7390.78 698.58)" fill="#fff"/>
  </g>
</svg>
