<svg width="136" height="16" viewBox="0 0 136 16" fill="none" xmlns="http://www.w3.org/2000/svg">
<path d="M0.896095 0.476562H9.8375L15.1695 8.26953L20.525 0.476562H29.3023V15.3945H23.7242V5.97266L17.6891 15.3945H12.5445L6.54453 5.97266V15.3945H0.896095V0.476562ZM49.4187 0.171875C51.7078 0.171875 53.9305 0.507813 56.0867 1.17969C58.243 1.85156 59.9344 2.80859 61.1609 4.05078C62.3875 5.29297 63.0008 6.59375 63.0008 7.95312C63.0008 9.30469 62.4031 10.5977 61.2078 11.832C60.0203 13.0586 58.3445 14.0156 56.1805 14.7031C54.0242 15.3906 51.7703 15.7344 49.4187 15.7344C47.0828 15.7344 44.8367 15.3906 42.6805 14.7031C40.5242 14.0156 38.8484 13.0586 37.6531 11.832C36.4578 10.5977 35.8602 9.30469 35.8602 7.95312C35.8602 6.59375 36.4656 5.29297 37.6766 4.05078C38.8953 2.80859 40.5867 1.85156 42.7508 1.17969C44.9148 0.507813 47.1375 0.171875 49.4187 0.171875ZM49.5945 3.99219C48.5164 3.99219 47.4734 4.17188 46.4656 4.53125C45.4578 4.88281 44.6687 5.37891 44.0984 6.01953C43.5281 6.66016 43.243 7.33594 43.243 8.04688C43.243 8.75 43.5203 9.42188 44.075 10.0625C44.6375 10.6953 45.4266 11.1914 46.4422 11.5508C47.4578 11.9102 48.5086 12.0898 49.5945 12.0898C50.6805 12.0898 51.7312 11.9102 52.7469 11.5508C53.7625 11.1914 54.5477 10.6953 55.1023 10.0625C55.657 9.42188 55.9344 8.75 55.9344 8.04688C55.9344 7.33594 55.6453 6.66016 55.0672 6.01953C54.4969 5.37891 53.7078 4.88281 52.7 4.53125C51.6922 4.17188 50.657 3.99219 49.5945 3.99219ZM86.7148 15.3945H77.7031L69.5586 0.476562H76.0039L82.2148 11.2695L88.3906 0.476562H94.8359L86.7148 15.3945ZM101.405 0.476562V15.3945H108.366V0.476562H101.405ZM114.924 0.476562V15.3945H135.104V11.6562L121.37 11.668V9.33594L133.569 9.35938V6.21875H121.37V6.20703V3.99219H135.104V0.476562H114.924Z" fill="white"/>
</svg>
