<svg width="177" height="9" viewBox="0 0 177 9" fill="none" xmlns="http://www.w3.org/2000/svg">
<path d="M0.614059 0.738281V8.19727H3.47343V3.54492L8.50664 8.19727H12.702V0.738281H9.88359V5.24414L4.66875 0.738281H0.614059ZM23.966 0.585938C25.1105 0.585938 26.2219 0.753906 27.3 1.08984C28.3781 1.42578 29.2238 1.9043 29.8371 2.52539C30.4504 3.14648 30.757 3.79688 30.757 4.47656C30.757 5.15234 30.4582 5.79883 29.8605 6.41602C29.2668 7.0293 28.4289 7.50781 27.3469 7.85156C26.2687 8.19531 25.1418 8.36719 23.966 8.36719C22.798 8.36719 21.675 8.19531 20.5969 7.85156C19.5187 7.50781 18.6809 7.0293 18.0832 6.41602C17.4855 5.79883 17.1867 5.15234 17.1867 4.47656C17.1867 3.79688 17.4895 3.14648 18.0949 2.52539C18.7043 1.9043 19.55 1.42578 20.632 1.08984C21.7141 0.753906 22.8254 0.585938 23.966 0.585938ZM24.0539 2.49609C23.5148 2.49609 22.9934 2.58594 22.4895 2.76562C21.9855 2.94141 21.591 3.18945 21.3059 3.50977C21.0207 3.83008 20.8781 4.16797 20.8781 4.52344C20.8781 4.875 21.0168 5.21094 21.2941 5.53125C21.5754 5.84766 21.9699 6.0957 22.4777 6.27539C22.9855 6.45508 23.5109 6.54492 24.0539 6.54492C24.5969 6.54492 25.1223 6.45508 25.6301 6.27539C26.1379 6.0957 26.5305 5.84766 26.8078 5.53125C27.0852 5.21094 27.2238 4.875 27.2238 4.52344C27.2238 4.16797 27.0793 3.83008 26.7902 3.50977C26.5051 3.18945 26.1105 2.94141 25.6066 2.76562C25.1027 2.58594 24.5852 2.49609 24.0539 2.49609ZM35.2359 0.738281H38.1305L39.3902 5.63672L41.066 0.738281H43.6383L45.3258 5.63672L46.5855 0.738281H49.4801L47.5113 8.19727H43.6383L42.3609 4.45312L41.0777 8.19727H37.2047L35.2359 0.738281ZM72.3832 2.37891C72.9652 2.38672 73.3363 2.52539 73.4965 2.79492C73.6605 3.06445 73.6605 3.33594 73.4965 3.60938C73.3363 3.87891 72.9359 4.01758 72.2953 4.02539H68.1117V3.19922V2.37891H72.3832ZM64.5961 0.738281V8.19727H68.1117V5.82422H73.5082C74.1605 5.78125 74.6664 5.68945 75.0258 5.54883C75.3891 5.4043 75.7113 5.19531 75.9926 4.92188C76.2777 4.64453 76.4437 4.29883 76.4906 3.88477C76.5375 3.4707 76.5453 3.0918 76.5141 2.74805C76.4828 2.4043 76.3402 2.10742 76.0863 1.85742C75.8363 1.60742 75.5238 1.39648 75.1488 1.22461C74.7738 1.05273 74.4223 0.945312 74.0941 0.902344C73.7699 0.855469 73.3539 0.800781 72.8461 0.738281H64.5961ZM81.0398 0.732422V8.19727H84.2273V5.58984H87.784C88.2801 5.60156 88.5418 5.79492 88.5691 6.16992C88.5965 6.54102 88.6414 6.91992 88.7039 7.30664C88.7664 7.69336 89.1141 7.99023 89.7469 8.19727H92.8992C92.7078 8.02539 92.6102 7.82812 92.6062 7.60547C92.868 5.80078 92.0203 4.86914 90.0633 4.81055V4.78711C91.7586 4.64648 92.6707 3.98633 92.7996 2.80664C92.6902 1.5918 91.6941 0.900391 89.8113 0.732422H81.0398ZM88.5105 2.33789C89.0418 2.33789 89.3738 2.61914 89.5066 3.18164C89.4402 3.68945 89.1199 3.94336 88.5457 3.94336H84.2273V2.33789H88.5105ZM97.4836 0.738281V8.19727H100.964V0.738281H97.4836ZM105.443 0.738281V8.19727H108.302V3.54492L113.336 8.19727H117.531V0.738281H114.712V5.24414L109.498 0.738281H105.443ZM122.016 0.738281H133.77V2.95898H129.604V8.19727H126.07V2.95898H122.016V0.738281ZM138.248 0.738281V8.19727H141.729V0.738281H138.248ZM146.208 0.738281V8.19727H149.067V3.54492L154.1 8.19727H158.296V0.738281H155.477V5.24414L150.262 0.738281H146.208ZM174.599 8.25586L174.019 7.20703C173.769 7.38281 173.462 7.54297 173.099 7.6875C172.739 7.82812 172.357 7.95117 171.95 8.05664C171.548 8.1582 171.136 8.23828 170.714 8.29688C170.292 8.35547 169.898 8.38477 169.53 8.38477C168.589 8.38477 167.72 8.32031 166.923 8.19141C166.13 8.05859 165.435 7.85742 164.837 7.58789C164.243 7.31836 163.769 6.98047 163.413 6.57422C163.058 6.16797 162.855 5.69141 162.804 5.14453C162.804 5.09766 162.802 5.04492 162.798 4.98633C162.794 4.92773 162.792 4.87109 162.792 4.81641C162.784 4.76172 162.78 4.70898 162.78 4.6582C162.78 4.60352 162.78 4.54688 162.78 4.48828C162.78 4.42578 162.782 4.35938 162.786 4.28906C162.79 4.21875 162.792 4.15039 162.792 4.08398V3.88477C162.827 3.4082 163.009 2.9707 163.337 2.57227C163.669 2.16992 164.134 1.82422 164.732 1.53516C165.329 1.24219 166.056 1.01367 166.911 0.849609C167.771 0.685547 168.749 0.603516 169.847 0.603516C170.652 0.603516 171.405 0.652344 172.109 0.75C172.816 0.847656 173.445 1.00586 173.995 1.22461C174.546 1.43945 175.005 1.71875 175.372 2.0625C175.739 2.40234 175.986 2.81836 176.111 3.31055V3.29883C176.122 3.31836 176.13 3.34961 176.134 3.39258C176.138 3.43555 176.144 3.47461 176.152 3.50977H172.027C172.007 3.46289 171.993 3.42188 171.986 3.38672C171.978 3.35156 171.966 3.32031 171.95 3.29297V3.31055C171.821 3.00195 171.575 2.76172 171.212 2.58984C170.849 2.41797 170.364 2.33203 169.759 2.33203C168.986 2.33203 168.306 2.46094 167.72 2.71875C167.138 2.97266 166.796 3.30273 166.695 3.70898C166.593 4.11523 166.542 4.36719 166.542 4.46484C166.542 4.57031 166.544 4.70508 166.548 4.86914C166.552 5.0332 166.599 5.18945 166.689 5.33789C166.782 5.48242 166.905 5.63281 167.058 5.78906C167.214 5.94141 167.458 6.09766 167.79 6.25781C168.122 6.41797 168.439 6.50391 168.739 6.51562C169.04 6.52734 169.382 6.5332 169.765 6.5332C171.097 6.56836 171.921 6.21289 172.238 5.4668H171.464V4.875H176.327C176.335 5.05469 176.339 5.25391 176.339 5.47266C176.339 5.69141 176.339 5.875 176.339 6.02344C176.347 6.21094 176.353 6.4082 176.357 6.61523C176.364 6.82227 176.37 7.02539 176.374 7.22461C176.378 7.42383 176.38 7.61328 176.38 7.79297C176.38 7.97266 176.38 8.12695 176.38 8.25586H174.599Z" fill="white"/>
</svg>
