<svg width="298" height="69" viewBox="0 0 298 69" fill="none" xmlns="http://www.w3.org/2000/svg">
<path d="M50.5428 2.60742V13.7959H59.6395C66.0614 13.8838 69.2928 11.8564 69.3338 7.71387C69.1287 4.52051 66.6414 2.81836 61.8719 2.60742H50.5428ZM59.4989 5.44629C62.6336 5.49902 64.1952 6.31055 64.1834 7.88086C64.1659 9.87891 62.7303 10.8691 59.8768 10.8516H55.6229L55.6317 5.44629H59.4989ZM73.5322 2.60742V13.7959H78.7529V2.60742H73.5322ZM95.5723 5.81543H100.978C100.843 5.24121 100.512 4.7373 99.9845 4.30371C99.4571 3.87012 98.8653 3.5127 98.2091 3.23145C97.5528 2.94434 96.5128 2.71582 95.0889 2.5459C93.6651 2.37598 92.6456 2.29102 92.0303 2.29102C91.2218 2.24414 90.1173 2.31738 88.7169 2.51074C87.3165 2.7041 86.168 3.01465 85.2716 3.44238C84.3809 3.87012 83.7716 4.32715 83.4434 4.81348C83.1153 5.29395 82.9512 5.82129 82.9512 6.39551C82.9512 6.96973 83.2559 7.50879 83.8653 8.0127C84.4805 8.5166 85.3448 8.87402 86.4581 9.08496C87.5714 9.2959 89.5723 9.43945 92.461 9.51562C92.8067 9.50391 93.1378 9.54785 93.4542 9.64746C93.7764 9.74121 94.0284 9.87891 94.21 10.0605C94.3917 10.2363 94.4825 10.418 94.4825 10.6055C94.4825 10.7871 94.3917 10.9688 94.21 11.1504C94.0343 11.3262 93.7852 11.4609 93.463 11.5547C93.1407 11.6426 92.6456 11.7363 91.9776 11.8359C91.4737 11.8242 91.0489 11.8008 90.7032 11.7656C90.3575 11.7305 90.0557 11.6514 89.7979 11.5283C89.5401 11.4053 89.3028 11.2266 89.086 10.9922C88.8692 10.752 88.7374 10.5205 88.6905 10.2979H82.9512C82.9512 10.708 83.0802 11.0713 83.338 11.3877C83.6016 11.6982 83.9796 12.0352 84.4718 12.3984C84.9698 12.7559 85.4913 13.0312 86.0362 13.2246C86.5811 13.4121 87.2315 13.5645 87.9874 13.6816C88.7432 13.7988 89.8565 13.9043 91.3272 13.998C92.6514 13.998 93.63 13.9746 94.2628 13.9277C94.9014 13.8809 95.5401 13.7871 96.1788 13.6465C96.8175 13.5 97.5499 13.2129 98.3761 12.7852C99.2081 12.3516 99.7911 11.9209 100.125 11.4932C100.459 11.0654 100.67 10.6377 100.758 10.21C100.852 9.77637 100.805 9.34863 100.617 8.92676C100.436 8.49902 100.19 8.15039 99.879 7.88086C99.5684 7.60547 99.129 7.35059 98.5606 7.11621C97.9923 6.87598 97.5323 6.73242 97.1807 6.68555C96.8292 6.63281 96.3311 6.58301 95.6866 6.53613C95.0421 6.4834 94.0401 6.43652 92.6807 6.39551C92.0128 6.39551 91.4971 6.39844 91.1339 6.4043C90.7706 6.4043 90.4278 6.35742 90.1055 6.26367C89.7833 6.16406 89.5343 6.0293 89.3585 5.85938C89.1886 5.68359 89.1007 5.50195 89.0948 5.31445C89.1007 5.12695 89.1915 4.94531 89.3673 4.76953C89.5489 4.58789 89.8009 4.45312 90.1231 4.36523C90.4512 4.27148 91.0196 4.20117 91.8282 4.1543C92.6778 4.20703 93.3018 4.28027 93.7003 4.37402C94.1046 4.46777 94.4356 4.6084 94.6934 4.7959C94.9571 4.9834 95.2501 5.32324 95.5723 5.81543ZM117.771 2.60742V6.49219H110.195V2.60742H105.185V13.7959H110.195V9.35742L117.771 9.375V13.7959H122.78V2.60742H117.771ZM137.561 2.0625L129.088 17.2852L126.979 16.1162L135.451 0.884766L137.561 2.0625ZM152.341 2.0625L143.869 17.2852L141.759 16.1162L150.232 0.884766L152.341 2.0625ZM170.177 2.60742V13.7959H174.466V6.81738L182.016 13.7959H188.309V2.60742H184.082V9.36621L176.259 2.60742H170.177ZM202.685 2.37891C204.402 2.37891 206.069 2.63086 207.686 3.13477C209.304 3.63867 210.572 4.35645 211.492 5.28809C212.412 6.21973 212.872 7.19531 212.872 8.21484C212.872 9.22852 212.424 10.1982 211.527 11.124C210.637 12.0439 209.38 12.7617 207.757 13.2773C206.139 13.793 204.449 14.0508 202.685 14.0508C200.933 14.0508 199.249 13.793 197.632 13.2773C196.014 12.7617 194.758 12.0439 193.861 11.124C192.965 10.1982 192.516 9.22852 192.516 8.21484C192.516 7.19531 192.971 6.21973 193.879 5.28809C194.793 4.35645 196.061 3.63867 197.684 3.13477C199.307 2.63086 200.974 2.37891 202.685 2.37891ZM202.817 5.24414C202.009 5.24414 201.226 5.37891 200.471 5.64844C199.715 5.91211 199.123 6.28418 198.695 6.76465C198.267 7.24512 198.054 7.75195 198.054 8.28516C198.054 8.8125 198.262 9.31641 198.678 9.79688C199.099 10.2715 199.691 10.6436 200.453 10.9131C201.215 11.1826 202.003 11.3174 202.817 11.3174C203.632 11.3174 204.42 11.1826 205.181 10.9131C205.943 10.6436 206.532 10.2715 206.948 9.79688C207.364 9.31641 207.572 8.8125 207.572 8.28516C207.572 7.75195 207.355 7.24512 206.922 6.76465C206.494 6.28418 205.902 5.91211 205.146 5.64844C204.39 5.37891 203.614 5.24414 202.817 5.24414ZM219.03 11.6602C219.358 11.6602 219.678 11.707 219.988 11.8008C220.299 11.8887 220.542 12.0176 220.718 12.1875C220.899 12.3516 220.99 12.5244 220.99 12.7061C220.99 12.8877 220.902 13.0605 220.726 13.2246C220.557 13.3887 220.316 13.5176 220.006 13.6113C219.695 13.6992 219.37 13.7432 219.03 13.7432C218.69 13.7432 218.365 13.6992 218.055 13.6113C217.744 13.5176 217.501 13.3887 217.325 13.2246C217.155 13.0605 217.07 12.8877 217.07 12.7061C217.07 12.5244 217.158 12.3516 217.334 12.1875C217.51 12.0176 217.753 11.8887 218.063 11.8008C218.374 11.707 218.696 11.6602 219.03 11.6602ZM247.457 2.625V13.8398H242.052V6.7998C240.78 7.28613 239.635 7.64355 238.615 7.87207V5.10352C241.029 4.14844 242.512 3.32227 243.063 2.625H247.457ZM50.6834 29.625V40.8398H45.2782V33.7998C44.0067 34.2861 42.8612 34.6436 41.8416 34.8721V32.1035C44.2557 31.1484 45.7381 30.3223 46.2889 29.625H50.6834ZM59.6543 33.167H54.8818C55.1337 31.7314 55.8339 30.7705 56.9824 30.2842C58.1308 29.792 59.8535 29.5459 62.1503 29.5459C64.3066 29.5459 65.9296 29.8154 67.0195 30.3545C68.1152 30.8936 68.663 31.5938 68.663 32.4551C68.663 32.9648 68.4345 33.4189 67.9775 33.8174C67.5263 34.2158 67.0839 34.4854 66.6503 34.626C66.8906 34.667 67.2011 34.7549 67.582 34.8896C68.2031 35.1182 68.6894 35.4229 69.041 35.8037C69.3984 36.1846 69.5771 36.6445 69.5771 37.1836C69.5771 37.8516 69.29 38.4844 68.7158 39.082C68.1474 39.6797 67.3359 40.1367 66.2812 40.4531C65.2265 40.7637 63.8496 40.9189 62.1503 40.9189C60.498 40.9189 59.1884 40.8047 58.2216 40.5762C57.2607 40.3418 56.4638 39.999 55.831 39.5479C55.2041 39.0908 54.8877 38.3027 54.8818 37.1836H59.6455C59.8564 37.7109 60.1523 38.0801 60.5332 38.291C60.9199 38.502 61.4589 38.6074 62.1503 38.6074C63.1582 38.6074 63.8642 38.4756 64.2685 38.2119C64.6787 37.9482 64.8837 37.6582 64.8837 37.3418C64.8837 36.9668 64.6875 36.6562 64.2949 36.4102C63.9082 36.1641 63.1933 36.041 62.1503 36.041C61.6523 36.041 61.0898 36.0527 60.4628 36.0762V33.7559C60.8437 33.791 61.4062 33.7793 62.1503 33.7207C62.8711 33.6621 63.372 33.5215 63.6533 33.2988C63.9345 33.0703 64.0752 32.8477 64.0752 32.6309C64.0752 32.4199 63.9287 32.2295 63.6357 32.0596C63.3486 31.8896 62.8535 31.8047 62.1503 31.8047C61.3007 31.8047 60.7089 31.9014 60.375 32.0947C60.041 32.2881 59.8007 32.6455 59.6543 33.167ZM73.7755 29.6074H91.4063V32.9385H85.1573V40.7959H79.8575V32.9385H73.7755V29.6074ZM108.191 29.6074V33.4922H100.614V29.6074H95.6047V40.7959H100.614V36.3574L108.191 36.375V40.7959H113.2V29.6074H108.191ZM143.447 32.8154H148.852C148.717 32.2412 148.386 31.7373 147.859 31.3037C147.331 30.8701 146.74 30.5127 146.083 30.2314C145.427 29.9443 144.387 29.7158 142.963 29.5459C141.539 29.376 140.52 29.291 139.905 29.291C139.096 29.2441 137.992 29.3174 136.591 29.5107C135.191 29.7041 134.042 30.0146 133.146 30.4424C132.255 30.8701 131.646 31.3271 131.318 31.8135C130.99 32.2939 130.826 32.8213 130.826 33.3955C130.826 33.9697 131.13 34.5088 131.74 35.0127C132.355 35.5166 133.219 35.874 134.332 36.085C135.446 36.2959 137.447 36.4395 140.335 36.5156C140.681 36.5039 141.012 36.5479 141.329 36.6475C141.651 36.7412 141.903 36.8789 142.084 37.0605C142.266 37.2363 142.357 37.418 142.357 37.6055C142.357 37.7871 142.266 37.9688 142.084 38.1504C141.909 38.3262 141.66 38.4609 141.337 38.5547C141.015 38.6426 140.52 38.7363 139.852 38.8359C139.348 38.8242 138.923 38.8008 138.578 38.7656C138.232 38.7305 137.93 38.6514 137.672 38.5283C137.414 38.4053 137.177 38.2266 136.96 37.9922C136.744 37.752 136.612 37.5205 136.565 37.2979H130.826C130.826 37.708 130.955 38.0713 131.212 38.3877C131.476 38.6982 131.854 39.0352 132.346 39.3984C132.844 39.7559 133.366 40.0312 133.911 40.2246C134.456 40.4121 135.106 40.5645 135.862 40.6816C136.618 40.7988 137.731 40.9043 139.202 40.998C140.526 40.998 141.504 40.9746 142.137 40.9277C142.776 40.8809 143.414 40.7871 144.053 40.6465C144.692 40.5 145.424 40.2129 146.25 39.7852C147.082 39.3516 147.665 38.9209 147.999 38.4932C148.333 38.0654 148.544 37.6377 148.632 37.21C148.726 36.7764 148.679 36.3486 148.492 35.9268C148.31 35.499 148.064 35.1504 147.753 34.8809C147.443 34.6055 147.003 34.3506 146.435 34.1162C145.867 33.876 145.407 33.7324 145.055 33.6855C144.704 33.6328 144.206 33.583 143.561 33.5361C142.916 33.4834 141.914 33.4365 140.555 33.3955C139.887 33.3955 139.372 33.3984 139.008 33.4043C138.645 33.4043 138.302 33.3574 137.98 33.2637C137.658 33.1641 137.409 33.0293 137.233 32.8594C137.063 32.6836 136.975 32.502 136.969 32.3145C136.975 32.127 137.066 31.9453 137.242 31.7695C137.423 31.5879 137.675 31.4531 137.997 31.3652C138.326 31.2715 138.894 31.2012 139.703 31.1543C140.552 31.207 141.176 31.2803 141.575 31.374C141.979 31.4678 142.31 31.6084 142.568 31.7959C142.831 31.9834 143.124 32.3232 143.447 32.8154ZM153.059 29.6074V40.7959H158.28V29.6074H153.059ZM162.478 29.6074V40.7959H166.767V33.8174L174.317 40.7959H180.61V29.6074H176.383V36.3662L168.56 29.6074H162.478ZM202.545 40.8838L201.675 39.3105C201.3 39.5742 200.84 39.8145 200.295 40.0312C199.756 40.2422 199.181 40.4268 198.572 40.585C197.969 40.7373 197.35 40.8574 196.718 40.9453C196.085 41.0332 195.493 41.0771 194.942 41.0771C193.53 41.0771 192.226 40.9805 191.031 40.7871C189.842 40.5879 188.799 40.2861 187.902 39.8818C187.012 39.4775 186.3 38.9707 185.766 38.3613C185.233 37.752 184.929 37.0371 184.852 36.2168C184.852 36.1465 184.849 36.0674 184.844 35.9795C184.838 35.8916 184.835 35.8066 184.835 35.7246C184.823 35.6426 184.817 35.5635 184.817 35.4873C184.817 35.4053 184.817 35.3203 184.817 35.2324C184.817 35.1387 184.82 35.0391 184.826 34.9336C184.832 34.8281 184.835 34.7256 184.835 34.626V34.3271C184.888 33.6123 185.16 32.9561 185.652 32.3584C186.15 31.7549 186.847 31.2363 187.744 30.8027C188.64 30.3633 189.73 30.0205 191.013 29.7744C192.303 29.5283 193.77 29.4053 195.417 29.4053C196.624 29.4053 197.755 29.4785 198.809 29.625C199.87 29.7715 200.813 30.0088 201.639 30.3369C202.466 30.6592 203.154 31.0781 203.705 31.5938C204.256 32.1035 204.625 32.7275 204.812 33.4658V33.4482C204.83 33.4775 204.842 33.5244 204.847 33.5889C204.853 33.6533 204.862 33.7119 204.874 33.7646H198.686C198.657 33.6943 198.637 33.6328 198.625 33.5801C198.613 33.5273 198.596 33.4805 198.572 33.4395V33.4658C198.379 33.0029 198.01 32.6426 197.465 32.3848C196.92 32.127 196.193 31.998 195.285 31.998C194.125 31.998 193.105 32.1914 192.226 32.5781C191.353 32.959 190.841 33.4541 190.688 34.0635C190.536 34.6729 190.46 35.0508 190.46 35.1973C190.46 35.3555 190.463 35.5576 190.469 35.8037C190.474 36.0498 190.545 36.2842 190.68 36.5068C190.82 36.7236 191.005 36.9492 191.233 37.1836C191.468 37.4121 191.834 37.6465 192.332 37.8867C192.83 38.127 193.305 38.2559 193.756 38.2734C194.207 38.291 194.72 38.2998 195.294 38.2998C197.292 38.3525 198.528 37.8193 199.003 36.7002H197.843V35.8125H205.138C205.149 36.082 205.155 36.3809 205.155 36.709C205.155 37.0371 205.155 37.3125 205.155 37.5352C205.167 37.8164 205.176 38.1123 205.181 38.4229C205.193 38.7334 205.202 39.0381 205.208 39.3369C205.214 39.6357 205.217 39.9199 205.217 40.1895C205.217 40.459 205.217 40.6904 205.217 40.8838H202.545ZM209.424 40.7959H223.179V37.5439H214.917V29.6074H209.424V40.7959ZM227.386 29.6074V40.7959H242.521V37.9922L232.22 38.001V36.252L241.343 36.2695L241.369 33.9141H232.22V33.9053V32.2441H242.521V29.6074H227.386ZM15.4375 67.8398H0.144562C0.34964 66.791 0.900421 65.8711 1.79691 65.0801C2.69339 64.2832 4.35159 63.3516 6.77151 62.2852C8.2305 61.6465 9.15042 61.1689 9.53128 60.8525C9.918 60.5361 10.1114 60.2549 10.1114 60.0088C10.1114 59.7451 9.92679 59.5107 9.55765 59.3057C9.18851 59.0947 8.7139 58.9893 8.13382 58.9893C7.51859 58.9893 7.02347 59.1006 6.64847 59.3232C6.27933 59.54 6.02151 59.9736 5.87503 60.624H0.504913C0.745148 59.4463 1.13773 58.6143 1.68265 58.1279C2.22757 57.6416 2.98929 57.2695 3.9678 57.0117C4.94632 56.7539 6.28812 56.625 7.99319 56.625C9.77444 56.625 11.1631 56.748 12.1592 56.9941C13.1612 57.2344 13.958 57.6152 14.5498 58.1367C15.1416 58.6523 15.4375 59.2412 15.4375 59.9033C15.4375 60.6006 15.1035 61.2598 14.4356 61.8809C13.7676 62.4961 12.5723 63.1641 10.8496 63.8848C9.84769 64.2949 9.17679 64.582 8.83694 64.7461C8.4971 64.9102 8.27737 65.0215 8.17776 65.0801H15.4375V67.8398ZM19.6359 62.1973C19.6359 59.9766 20.2716 58.4209 21.5431 57.5303C22.8205 56.6396 24.7394 56.1943 27.3 56.1943C28.5246 56.1943 29.5324 56.291 30.3234 56.4844C31.1203 56.6777 31.7736 56.9297 32.2834 57.2402C32.7931 57.5508 33.1945 57.8818 33.4875 58.2334C33.7804 58.5791 34.0177 58.9834 34.1994 59.4463C34.5451 60.3135 34.7179 61.2188 34.7179 62.1621C34.7179 64.2773 34.1437 65.8301 32.9953 66.8203C31.8527 67.8047 29.9074 68.2969 27.1593 68.2969C25.63 68.2969 24.3849 68.1416 23.424 67.8311C22.4689 67.5205 21.6837 67.0605 21.0685 66.4512C20.6173 66.0176 20.2658 65.4258 20.0138 64.6758C19.7619 63.9258 19.6359 63.0996 19.6359 62.1973ZM24.9357 62.2061C24.9357 63.6123 25.1232 64.5615 25.4982 65.0537C25.8791 65.5459 26.4328 65.792 27.1593 65.792C27.6339 65.792 28.0412 65.6895 28.381 65.4844C28.7267 65.2734 28.9816 64.9424 29.1457 64.4912C29.3156 64.0342 29.4005 63.3018 29.4005 62.2939C29.4005 60.8291 29.213 59.8564 28.838 59.376C28.463 58.8896 27.8947 58.6465 27.133 58.6465C26.3537 58.6465 25.7912 58.8926 25.4455 59.3848C25.1056 59.877 24.9357 60.8174 24.9357 62.2061ZM54.2093 67.8398H38.9163C39.1214 66.791 39.6721 65.8711 40.5686 65.0801C41.4651 64.2832 43.1233 63.3516 45.5432 62.2852C47.0022 61.6465 47.9221 61.1689 48.303 60.8525C48.6897 60.5361 48.8831 60.2549 48.8831 60.0088C48.8831 59.7451 48.6985 59.5107 48.3294 59.3057C47.9602 59.0947 47.4856 58.9893 46.9055 58.9893C46.2903 58.9893 45.7952 59.1006 45.4202 59.3232C45.051 59.54 44.7932 59.9736 44.6468 60.624H39.2766C39.5169 59.4463 39.9094 58.6143 40.4544 58.1279C40.9993 57.6416 41.761 57.2695 42.7395 57.0117C43.718 56.7539 45.0598 56.625 46.7649 56.625C48.5462 56.625 49.9348 56.748 50.9309 56.9941C51.9329 57.2344 52.7298 57.6152 53.3216 58.1367C53.9134 58.6523 54.2093 59.2412 54.2093 59.9033C54.2093 60.6006 53.8753 61.2598 53.2073 61.8809C52.5393 62.4961 51.344 63.1641 49.6214 63.8848C48.6194 64.2949 47.9485 64.582 47.6087 64.7461C47.2688 64.9102 47.0491 65.0215 46.9495 65.0801H54.2093V67.8398ZM67.2494 56.625V67.8398H61.8441V60.7998C60.5726 61.2861 59.4271 61.6436 58.4076 61.8721V59.1035C60.8217 58.1484 62.3041 57.3223 62.8549 56.625H67.2494ZM73.4077 65.6602C73.7359 65.6602 74.0552 65.707 74.3657 65.8008C74.6763 65.8887 74.9194 66.0176 75.0952 66.1875C75.2769 66.3516 75.3677 66.5244 75.3677 66.7061C75.3677 66.8877 75.2798 67.0605 75.104 67.2246C74.9341 67.3887 74.6939 67.5176 74.3833 67.6113C74.0728 67.6992 73.7476 67.7432 73.4077 67.7432C73.0679 67.7432 72.7427 67.6992 72.4321 67.6113C72.1216 67.5176 71.8784 67.3887 71.7027 67.2246C71.5327 67.0605 71.4478 66.8877 71.4478 66.7061C71.4478 66.5244 71.5357 66.3516 71.7114 66.1875C71.8872 66.0176 72.1304 65.8887 72.4409 65.8008C72.7515 65.707 73.0737 65.6602 73.4077 65.6602ZM81.3239 56.6602H93.4967V59.3584H85.0592L84.734 60.5625C85.3434 60.457 85.9235 60.3662 86.4743 60.29C87.0309 60.208 87.5787 60.167 88.1178 60.167C89.9518 60.167 91.4518 60.5039 92.6178 61.1777C93.7838 61.8457 94.3668 62.7012 94.3668 63.7441C94.3668 64.4766 94.0651 65.1738 93.4616 65.8359C92.858 66.498 92.0143 67.002 90.9303 67.3477C89.8463 67.6875 88.569 67.8574 87.0983 67.8574C86.108 67.8574 85.1823 67.79 84.3209 67.6553C83.4655 67.5205 82.733 67.3184 82.1237 67.0488C81.5143 66.7793 80.9371 66.3926 80.3922 65.8887C79.8473 65.3789 79.5719 64.8311 79.566 64.2451H84.4C84.5348 64.6494 84.8102 64.9688 85.2262 65.2031C85.6481 65.4316 86.2721 65.5459 87.0983 65.5459C87.9948 65.5459 88.6657 65.4023 89.111 65.1152C89.5563 64.8223 89.7789 64.4561 89.7789 64.0166C89.7789 63.5537 89.5534 63.1875 89.1022 62.918C88.6569 62.6484 87.9889 62.5137 87.0983 62.5137C86.319 62.5137 85.7389 62.5723 85.358 62.6895C84.983 62.8008 84.6637 62.9385 84.4 63.1025H79.6451L81.3239 56.6602ZM100.525 65.6602C100.853 65.6602 101.173 65.707 101.483 65.8008C101.794 65.8887 102.037 66.0176 102.213 66.1875C102.394 66.3516 102.485 66.5244 102.485 66.7061C102.485 66.8877 102.397 67.0605 102.221 67.2246C102.052 67.3887 101.811 67.5176 101.501 67.6113C101.19 67.6992 100.865 67.7432 100.525 67.7432C100.185 67.7432 99.8601 67.6992 99.5496 67.6113C99.239 67.5176 98.9958 67.3887 98.8201 67.2246C98.6501 67.0605 98.5652 66.8877 98.5652 66.7061C98.5652 66.5244 98.6531 66.3516 98.8289 66.1875C99.0046 66.0176 99.2478 65.8887 99.5583 65.8008C99.8689 65.707 100.191 65.6602 100.525 65.6602ZM121.976 67.8398H106.683C106.889 66.791 107.439 65.8711 108.336 65.0801C109.232 64.2832 110.891 63.3516 113.31 62.2852C114.769 61.6465 115.689 61.1689 116.07 60.8525C116.457 60.5361 116.65 60.2549 116.65 60.0088C116.65 59.7451 116.466 59.5107 116.097 59.3057C115.727 59.0947 115.253 58.9893 114.673 58.9893C114.057 58.9893 113.562 59.1006 113.187 59.3232C112.818 59.54 112.56 59.9736 112.414 60.624H107.044C107.284 59.4463 107.677 58.6143 108.222 58.1279C108.766 57.6416 109.528 57.2695 110.507 57.0117C111.485 56.7539 112.827 56.625 114.532 56.625C116.313 56.625 117.702 56.748 118.698 56.9941C119.7 57.2344 120.497 57.6152 121.089 58.1367C121.681 58.6523 121.976 59.2412 121.976 59.9033C121.976 60.6006 121.642 61.2598 120.974 61.8809C120.307 62.4961 119.111 63.1641 117.389 63.8848C116.387 64.2949 115.716 64.582 115.376 64.7461C115.036 64.9102 114.816 65.0215 114.717 65.0801H121.976V67.8398ZM140.976 60.2285H136.95C136.88 59.5781 135.928 59.2529 134.094 59.2529C132.09 59.2529 131.088 59.9795 131.088 61.4326C132.207 61.04 133.209 60.8438 134.094 60.8438C136.379 60.8438 138.096 61.1367 139.244 61.7227C140.398 62.3086 140.976 63.1523 140.976 64.2539C140.976 65.0098 140.68 65.6631 140.088 66.2139C139.496 66.7646 138.693 67.1924 137.68 67.4971C136.666 67.8018 135.471 67.9541 134.094 67.9541C132.389 67.9541 130.979 67.7666 129.866 67.3916C128.759 67.0166 127.865 66.416 127.186 65.5898C126.512 64.7637 126.175 63.6738 126.175 62.3203C126.175 60.334 126.878 58.8809 128.284 57.9609C129.696 57.041 131.633 56.5811 134.094 56.5811C138.412 56.5811 140.706 57.7969 140.976 60.2285ZM131.088 64.21C131.088 64.4912 131.381 64.7168 131.967 64.8867C132.559 65.0508 133.268 65.1328 134.094 65.1328C134.955 65.1328 135.646 65.0449 136.168 64.8691C136.689 64.6934 136.95 64.459 136.95 64.166C136.95 63.8672 136.678 63.6562 136.133 63.5332C135.594 63.4043 134.914 63.3398 134.094 63.3398C133.203 63.3398 132.479 63.416 131.923 63.5684C131.366 63.7207 131.088 63.9346 131.088 64.21ZM158.601 56.5986V67.7959H163.382V63.8848H168.717C169.461 63.9023 169.854 64.1924 169.895 64.7549C169.936 65.3115 170.003 65.8799 170.097 66.46C170.191 67.04 170.712 67.4854 171.661 67.7959H176.39C176.103 67.5381 175.956 67.2422 175.95 66.9082C176.343 64.2012 175.072 62.8037 172.136 62.7158V62.6807C174.679 62.4697 176.047 61.4795 176.24 59.71C176.076 57.8877 174.582 56.8506 171.758 56.5986H158.601ZM169.807 59.0068C170.604 59.0068 171.102 59.4287 171.301 60.2725C171.201 61.0342 170.721 61.415 169.86 61.415H163.382V59.0068H169.807ZM180.746 56.6074V67.7959H195.881V64.9922L185.58 65.001V63.252L194.73 63.2695V60.9141H185.58V60.9053V59.2441H195.881V56.6074H180.746ZM200.08 67.7959H213.834V64.5439H205.573V56.6074H200.08V67.7959ZM218.042 56.6074V67.7959H233.176V64.9922L222.876 65.001V63.252L232.025 63.2695V60.9141H222.876V60.9053V59.2441H233.176V56.6074H218.042ZM244.608 63.5596H249.17L246.858 59.5078L244.608 63.5596ZM243.448 56.6074H250.18L256.289 67.7959H251.455L250.347 65.792H243.369L242.261 67.7959H237.375L243.448 56.6074ZM273.108 59.8154H278.514C278.379 59.2412 278.048 58.7373 277.52 58.3037C276.993 57.8701 276.401 57.5127 275.745 57.2314C275.089 56.9443 274.049 56.7158 272.625 56.5459C271.201 56.376 270.181 56.291 269.566 56.291C268.758 56.2441 267.653 56.3174 266.253 56.5107C264.852 56.7041 263.704 57.0146 262.807 57.4424C261.917 57.8701 261.307 58.3271 260.979 58.8135C260.651 59.2939 260.487 59.8213 260.487 60.3955C260.487 60.9697 260.792 61.5088 261.401 62.0127C262.016 62.5166 262.881 62.874 263.994 63.085C265.107 63.2959 267.108 63.4395 269.997 63.5156C270.343 63.5039 270.674 63.5479 270.99 63.6475C271.312 63.7412 271.564 63.8789 271.746 64.0605C271.928 64.2363 272.018 64.418 272.018 64.6055C272.018 64.7871 271.928 64.9688 271.746 65.1504C271.57 65.3262 271.321 65.4609 270.999 65.5547C270.677 65.6426 270.181 65.7363 269.514 65.8359C269.01 65.8242 268.585 65.8008 268.239 65.7656C267.893 65.7305 267.592 65.6514 267.334 65.5283C267.076 65.4053 266.839 65.2266 266.622 64.9922C266.405 64.752 266.273 64.5205 266.226 64.2979H260.487C260.487 64.708 260.616 65.0713 260.874 65.3877C261.138 65.6982 261.515 66.0352 262.008 66.3984C262.506 66.7559 263.027 67.0312 263.572 67.2246C264.117 67.4121 264.767 67.5645 265.523 67.6816C266.279 67.7988 267.392 67.9043 268.863 67.998C270.187 67.998 271.166 67.9746 271.799 67.9277C272.437 67.8809 273.076 67.7871 273.715 67.6465C274.353 67.5 275.086 67.2129 275.912 66.7852C276.744 66.3516 277.327 65.9209 277.661 65.4932C277.995 65.0654 278.206 64.6377 278.294 64.21C278.388 63.7764 278.341 63.3486 278.153 62.9268C277.972 62.499 277.725 62.1504 277.415 61.8809C277.104 61.6055 276.665 61.3506 276.097 61.1162C275.528 60.876 275.068 60.7324 274.717 60.6855C274.365 60.6328 273.867 60.583 273.223 60.5361C272.578 60.4834 271.576 60.4365 270.217 60.3955C269.549 60.3955 269.033 60.3984 268.67 60.4043C268.306 60.4043 267.964 60.3574 267.641 60.2637C267.319 60.1641 267.07 60.0293 266.894 59.8594C266.724 59.6836 266.637 59.502 266.631 59.3145C266.637 59.127 266.727 58.9453 266.903 58.7695C267.085 58.5879 267.337 58.4531 267.659 58.3652C267.987 58.2715 268.556 58.2012 269.364 58.1543C270.214 58.207 270.838 58.2803 271.236 58.374C271.64 58.4678 271.972 58.6084 272.229 58.7959C272.493 58.9834 272.786 59.3232 273.108 59.8154ZM282.721 56.6074V67.7959H297.855V64.9922L287.555 65.001V63.252L296.704 63.2695V60.9141H287.555V60.9053V59.2441H297.855V56.6074H282.721Z" fill="white"/>
</svg>
