<svg width="292" height="42" viewBox="0 0 292 42" fill="none" xmlns="http://www.w3.org/2000/svg">
<path d="M40.7239 2.60742V13.7959H49.8206C56.2425 13.8838 59.4739 11.8564 59.5149 7.71387C59.3098 4.52051 56.8225 2.81836 52.053 2.60742H40.7239ZM49.68 5.44629C52.8147 5.49902 54.3763 6.31055 54.3645 7.88086C54.347 9.87891 52.9114 10.8691 50.0579 10.8516H45.804L45.8128 5.44629H49.68ZM63.7133 2.60742V13.7959H68.934V2.60742H63.7133ZM85.7534 5.81543H91.1587C91.0239 5.24121 90.6929 4.7373 90.1656 4.30371C89.6382 3.87012 89.0464 3.5127 88.3902 3.23145C87.7339 2.94434 86.6939 2.71582 85.27 2.5459C83.8462 2.37598 82.8267 2.29102 82.2114 2.29102C81.4029 2.24414 80.2984 2.31738 78.898 2.51074C77.4976 2.7041 76.3491 3.01465 75.4527 3.44238C74.562 3.87012 73.9527 4.32715 73.6245 4.81348C73.2964 5.29395 73.1323 5.82129 73.1323 6.39551C73.1323 6.96973 73.437 7.50879 74.0464 8.0127C74.6616 8.5166 75.5259 8.87402 76.6392 9.08496C77.7525 9.2959 79.7534 9.43945 82.6421 9.51562C82.9878 9.50391 83.3189 9.54785 83.6353 9.64746C83.9575 9.74121 84.2095 9.87891 84.3911 10.0605C84.5728 10.2363 84.6636 10.418 84.6636 10.6055C84.6636 10.7871 84.5728 10.9688 84.3911 11.1504C84.2154 11.3262 83.9663 11.4609 83.6441 11.5547C83.3218 11.6426 82.8267 11.7363 82.1587 11.8359C81.6548 11.8242 81.23 11.8008 80.8843 11.7656C80.5386 11.7305 80.2368 11.6514 79.979 11.5283C79.7212 11.4053 79.4839 11.2266 79.2671 10.9922C79.0503 10.752 78.9185 10.5205 78.8716 10.2979H73.1323C73.1323 10.708 73.2613 11.0713 73.5191 11.3877C73.7827 11.6982 74.1607 12.0352 74.6529 12.3984C75.1509 12.7559 75.6724 13.0312 76.2173 13.2246C76.7622 13.4121 77.4126 13.5645 78.1685 13.6816C78.9243 13.7988 80.0376 13.9043 81.5083 13.998C82.8325 13.998 83.8111 13.9746 84.4439 13.9277C85.0825 13.8809 85.7212 13.7871 86.3599 13.6465C86.9986 13.5 87.731 13.2129 88.5572 12.7852C89.3892 12.3516 89.9722 11.9209 90.3062 11.4932C90.6402 11.0654 90.8511 10.6377 90.939 10.21C91.0327 9.77637 90.9859 9.34863 90.7984 8.92676C90.6167 8.49902 90.3706 8.15039 90.0601 7.88086C89.7495 7.60547 89.3101 7.35059 88.7417 7.11621C88.1734 6.87598 87.7134 6.73242 87.3618 6.68555C87.0103 6.63281 86.5122 6.58301 85.8677 6.53613C85.2232 6.4834 84.2212 6.43652 82.8618 6.39551C82.1939 6.39551 81.6782 6.39844 81.315 6.4043C80.9517 6.4043 80.6089 6.35742 80.2866 6.26367C79.9644 6.16406 79.7154 6.0293 79.5396 5.85938C79.3697 5.68359 79.2818 5.50195 79.2759 5.31445C79.2818 5.12695 79.3726 4.94531 79.5484 4.76953C79.73 4.58789 79.982 4.45312 80.3042 4.36523C80.6323 4.27148 81.2007 4.20117 82.0093 4.1543C82.8589 4.20703 83.4829 4.28027 83.8814 4.37402C84.2857 4.46777 84.6167 4.6084 84.8745 4.7959C85.1382 4.9834 85.4312 5.32324 85.7534 5.81543ZM107.952 2.60742V6.49219H100.376V2.60742H95.3659V13.7959H100.376V9.35742L107.952 9.375V13.7959H112.962V2.60742H107.952ZM127.742 2.0625L119.269 17.2852L117.16 16.1162L125.633 0.884766L127.742 2.0625ZM142.522 2.0625L134.05 17.2852L131.94 16.1162L140.413 0.884766L142.522 2.0625ZM160.359 2.60742V13.7959H164.648V6.81738L172.197 13.7959H178.49V2.60742H174.263V9.36621L166.441 2.60742H160.359ZM192.866 2.37891C194.583 2.37891 196.25 2.63086 197.867 3.13477C199.485 3.63867 200.753 4.35645 201.673 5.28809C202.593 6.21973 203.053 7.19531 203.053 8.21484C203.053 9.22852 202.605 10.1982 201.708 11.124C200.818 12.0439 199.561 12.7617 197.938 13.2773C196.321 13.793 194.63 14.0508 192.866 14.0508C191.115 14.0508 189.43 13.793 187.813 13.2773C186.196 12.7617 184.939 12.0439 184.042 11.124C183.146 10.1982 182.698 9.22852 182.698 8.21484C182.698 7.19531 183.152 6.21973 184.06 5.28809C184.974 4.35645 186.242 3.63867 187.865 3.13477C189.489 2.63086 191.156 2.37891 192.866 2.37891ZM192.998 5.24414C192.19 5.24414 191.407 5.37891 190.652 5.64844C189.896 5.91211 189.304 6.28418 188.876 6.76465C188.448 7.24512 188.235 7.75195 188.235 8.28516C188.235 8.8125 188.443 9.31641 188.859 9.79688C189.281 10.2715 189.872 10.6436 190.634 10.9131C191.396 11.1826 192.184 11.3174 192.998 11.3174C193.813 11.3174 194.601 11.1826 195.363 10.9131C196.124 10.6436 196.713 10.2715 197.129 9.79688C197.545 9.31641 197.753 8.8125 197.753 8.28516C197.753 7.75195 197.536 7.24512 197.103 6.76465C196.675 6.28418 196.083 5.91211 195.327 5.64844C194.572 5.37891 193.795 5.24414 192.998 5.24414ZM209.211 11.6602C209.539 11.6602 209.859 11.707 210.169 11.8008C210.48 11.8887 210.723 12.0176 210.899 12.1875C211.08 12.3516 211.171 12.5244 211.171 12.7061C211.171 12.8877 211.083 13.0605 210.908 13.2246C210.738 13.3887 210.497 13.5176 210.187 13.6113C209.876 13.6992 209.551 13.7432 209.211 13.7432C208.871 13.7432 208.546 13.6992 208.236 13.6113C207.925 13.5176 207.682 13.3887 207.506 13.2246C207.336 13.0605 207.251 12.8877 207.251 12.7061C207.251 12.5244 207.339 12.3516 207.515 12.1875C207.691 12.0176 207.934 11.8887 208.244 11.8008C208.555 11.707 208.877 11.6602 209.211 11.6602ZM237.638 2.625V13.8398H232.233V6.7998C230.962 7.28613 229.816 7.64355 228.796 7.87207V5.10352C231.211 4.14844 232.693 3.32227 233.244 2.625H237.638ZM15.3555 40.8398H0.0625305C0.267609 39.791 0.81839 38.8711 1.71487 38.0801C2.61136 37.2832 4.26956 36.3516 6.68948 35.2852C8.14847 34.6465 9.06839 34.1689 9.44925 33.8525C9.83597 33.5361 10.0293 33.2549 10.0293 33.0088C10.0293 32.7451 9.84476 32.5107 9.47562 32.3057C9.10648 32.0947 8.63187 31.9893 8.05179 31.9893C7.43655 31.9893 6.94144 32.1006 6.56644 32.3232C6.1973 32.54 5.93948 32.9736 5.793 33.624H0.422882C0.663116 32.4463 1.05569 31.6143 1.60062 31.1279C2.14554 30.6416 2.90726 30.2695 3.88577 30.0117C4.86429 29.7539 6.20609 29.625 7.91116 29.625C9.69241 29.625 11.0811 29.748 12.0772 29.9941C13.0791 30.2344 13.876 30.6152 14.4678 31.1367C15.0596 31.6523 15.3555 32.2412 15.3555 32.9033C15.3555 33.6006 15.0215 34.2598 14.3535 34.8809C13.6856 35.4961 12.4903 36.1641 10.7676 36.8848C9.76566 37.2949 9.09476 37.582 8.75491 37.7461C8.41507 37.9102 8.19534 38.0215 8.09573 38.0801H15.3555V40.8398ZM19.5539 35.1973C19.5539 32.9766 20.1896 31.4209 21.4611 30.5303C22.7384 29.6396 24.6574 29.1943 27.2179 29.1943C28.4425 29.1943 29.4503 29.291 30.2414 29.4844C31.0382 29.6777 31.6916 29.9297 32.2013 30.2402C32.7111 30.5508 33.1125 30.8818 33.4054 31.2334C33.6984 31.5791 33.9357 31.9834 34.1173 32.4463C34.463 33.3135 34.6359 34.2188 34.6359 35.1621C34.6359 37.2773 34.0617 38.8301 32.9132 39.8203C31.7707 40.8047 29.8253 41.2969 27.0773 41.2969C25.548 41.2969 24.3029 41.1416 23.3419 40.8311C22.3869 40.5205 21.6017 40.0605 20.9865 39.4512C20.5353 39.0176 20.1837 38.4258 19.9318 37.6758C19.6798 36.9258 19.5539 36.0996 19.5539 35.1973ZM24.8537 35.2061C24.8537 36.6123 25.0412 37.5615 25.4162 38.0537C25.797 38.5459 26.3507 38.792 27.0773 38.792C27.5519 38.792 27.9591 38.6895 28.299 38.4844C28.6447 38.2734 28.8996 37.9424 29.0636 37.4912C29.2335 37.0342 29.3185 36.3018 29.3185 35.2939C29.3185 33.8291 29.131 32.8564 28.756 32.376C28.381 31.8896 27.8126 31.6465 27.0509 31.6465C26.2716 31.6465 25.7091 31.8926 25.3634 32.3848C25.0236 32.877 24.8537 33.8174 24.8537 35.2061ZM54.1272 40.8398H38.8343C39.0393 39.791 39.5901 38.8711 40.4866 38.0801C41.3831 37.2832 43.0413 36.3516 45.4612 35.2852C46.9202 34.6465 47.8401 34.1689 48.221 33.8525C48.6077 33.5361 48.801 33.2549 48.801 33.0088C48.801 32.7451 48.6165 32.5107 48.2473 32.3057C47.8782 32.0947 47.4036 31.9893 46.8235 31.9893C46.2083 31.9893 45.7132 32.1006 45.3382 32.3232C44.969 32.54 44.7112 32.9736 44.5647 33.624H39.1946C39.4348 32.4463 39.8274 31.6143 40.3723 31.1279C40.9173 30.6416 41.679 30.2695 42.6575 30.0117C43.636 29.7539 44.9778 29.625 46.6829 29.625C48.4641 29.625 49.8528 29.748 50.8489 29.9941C51.8509 30.2344 52.6477 30.6152 53.2395 31.1367C53.8313 31.6523 54.1272 32.2412 54.1272 32.9033C54.1272 33.6006 53.7932 34.2598 53.1253 34.8809C52.4573 35.4961 51.262 36.1641 49.5393 36.8848C48.5374 37.2949 47.8665 37.582 47.5266 37.7461C47.1868 37.9102 46.9671 38.0215 46.8675 38.0801H54.1272V40.8398ZM67.1674 29.625V40.8398H61.7621V33.7998C60.4906 34.2861 59.3451 34.6436 58.3256 34.8721V32.1035C60.7396 31.1484 62.2221 30.3223 62.7728 29.625H67.1674ZM73.3257 38.6602C73.6538 38.6602 73.9732 38.707 74.2837 38.8008C74.5943 38.8887 74.8374 39.0176 75.0132 39.1875C75.1948 39.3516 75.2857 39.5244 75.2857 39.7061C75.2857 39.8877 75.1978 40.0605 75.022 40.2246C74.8521 40.3887 74.6118 40.5176 74.3013 40.6113C73.9907 40.6992 73.6655 40.7432 73.3257 40.7432C72.9859 40.7432 72.6607 40.6992 72.3501 40.6113C72.0396 40.5176 71.7964 40.3887 71.6206 40.2246C71.4507 40.0605 71.3657 39.8877 71.3657 39.7061C71.3657 39.5244 71.4536 39.3516 71.6294 39.1875C71.8052 39.0176 72.0484 38.8887 72.3589 38.8008C72.6694 38.707 72.9917 38.6602 73.3257 38.6602ZM88.4928 38.8271L79.484 38.8184V36.1289L88.1764 29.625H92.5797V36.1904H94.6188V38.8184H92.5797V40.8223H88.4928V38.8271ZM88.4928 36.1992V32.9824L84.195 36.1904L88.4928 36.1992ZM100.777 38.6602C101.105 38.6602 101.425 38.707 101.735 38.8008C102.046 38.8887 102.289 39.0176 102.465 39.1875C102.646 39.3516 102.737 39.5244 102.737 39.7061C102.737 39.8877 102.649 40.0605 102.473 40.2246C102.303 40.3887 102.063 40.5176 101.753 40.6113C101.442 40.6992 101.117 40.7432 100.777 40.7432C100.437 40.7432 100.112 40.6992 99.8015 40.6113C99.491 40.5176 99.2478 40.3887 99.072 40.2246C98.9021 40.0605 98.8171 39.8877 98.8171 39.7061C98.8171 39.5244 98.905 39.3516 99.0808 39.1875C99.2566 39.0176 99.4998 38.8887 99.8103 38.8008C100.121 38.707 100.443 38.6602 100.777 38.6602ZM115.777 29.625V40.8398H110.372V33.7998C109.1 34.2861 107.955 34.6436 106.935 34.8721V32.1035C109.349 31.1484 110.832 30.3223 111.383 29.625H115.777ZM119.976 35.1973C119.976 32.9766 120.611 31.4209 121.883 30.5303C123.16 29.6396 125.079 29.1943 127.64 29.1943C128.864 29.1943 129.872 29.291 130.663 29.4844C131.46 29.6777 132.113 29.9297 132.623 30.2402C133.133 30.5508 133.534 30.8818 133.827 31.2334C134.12 31.5791 134.357 31.9834 134.539 32.4463C134.885 33.3135 135.058 34.2188 135.058 35.1621C135.058 37.2773 134.483 38.8301 133.335 39.8203C132.192 40.8047 130.247 41.2969 127.499 41.2969C125.97 41.2969 124.725 41.1416 123.764 40.8311C122.809 40.5205 122.023 40.0605 121.408 39.4512C120.957 39.0176 120.605 38.4258 120.354 37.6758C120.102 36.9258 119.976 36.0996 119.976 35.1973ZM125.275 35.2061C125.275 36.6123 125.463 37.5615 125.838 38.0537C126.219 38.5459 126.772 38.792 127.499 38.792C127.974 38.792 128.381 38.6895 128.721 38.4844C129.066 38.2734 129.321 37.9424 129.485 37.4912C129.655 37.0342 129.74 36.3018 129.74 35.2939C129.74 33.8291 129.553 32.8564 129.178 32.376C128.803 31.8896 128.234 31.6465 127.473 31.6465C126.693 31.6465 126.131 31.8926 125.785 32.3848C125.445 32.877 125.275 33.8174 125.275 35.2061ZM152.683 29.5986V40.7959H157.464V36.8848H162.799C163.543 36.9023 163.936 37.1924 163.977 37.7549C164.018 38.3115 164.085 38.8799 164.179 39.46C164.273 40.04 164.794 40.4854 165.743 40.7959H170.472C170.185 40.5381 170.038 40.2422 170.032 39.9082C170.425 37.2012 169.154 35.8037 166.218 35.7158V35.6807C168.761 35.4697 170.129 34.4795 170.322 32.71C170.158 30.8877 168.664 29.8506 165.84 29.5986H152.683ZM163.889 32.0068C164.686 32.0068 165.184 32.4287 165.383 33.2725C165.283 34.0342 164.803 34.415 163.942 34.415H157.464V32.0068H163.889ZM174.828 29.6074V40.7959H189.963V37.9922L179.662 38.001V36.252L188.812 36.2695V33.9141H179.662V33.9053V32.2441H189.963V29.6074H174.828ZM194.162 40.7959H207.916V37.5439H199.655V29.6074H194.162V40.7959ZM212.124 29.6074V40.7959H227.258V37.9922L216.958 38.001V36.252L226.107 36.2695V33.9141H216.958V33.9053V32.2441H227.258V29.6074H212.124ZM238.69 36.5596H243.252L240.94 32.5078L238.69 36.5596ZM237.53 29.6074H244.262L250.371 40.7959H245.537L244.429 38.792H237.451L236.343 40.7959H231.457L237.53 29.6074ZM267.19 32.8154H272.596C272.461 32.2412 272.13 31.7373 271.602 31.3037C271.075 30.8701 270.483 30.5127 269.827 30.2314C269.171 29.9443 268.131 29.7158 266.707 29.5459C265.283 29.376 264.264 29.291 263.648 29.291C262.84 29.2441 261.735 29.3174 260.335 29.5107C258.934 29.7041 257.786 30.0146 256.889 30.4424C255.999 30.8701 255.389 31.3271 255.061 31.8135C254.733 32.2939 254.569 32.8213 254.569 33.3955C254.569 33.9697 254.874 34.5088 255.483 35.0127C256.098 35.5166 256.963 35.874 258.076 36.085C259.189 36.2959 261.19 36.4395 264.079 36.5156C264.425 36.5039 264.756 36.5479 265.072 36.6475C265.394 36.7412 265.646 36.8789 265.828 37.0605C266.01 37.2363 266.1 37.418 266.1 37.6055C266.1 37.7871 266.01 37.9688 265.828 38.1504C265.652 38.3262 265.403 38.4609 265.081 38.5547C264.759 38.6426 264.264 38.7363 263.596 38.8359C263.092 38.8242 262.667 38.8008 262.321 38.7656C261.975 38.7305 261.674 38.6514 261.416 38.5283C261.158 38.4053 260.921 38.2266 260.704 37.9922C260.487 37.752 260.355 37.5205 260.308 37.2979H254.569C254.569 37.708 254.698 38.0713 254.956 38.3877C255.22 38.6982 255.597 39.0352 256.09 39.3984C256.588 39.7559 257.109 40.0312 257.654 40.2246C258.199 40.4121 258.849 40.5645 259.605 40.6816C260.361 40.7988 261.474 40.9043 262.945 40.998C264.269 40.998 265.248 40.9746 265.881 40.9277C266.519 40.8809 267.158 40.7871 267.797 40.6465C268.435 40.5 269.168 40.2129 269.994 39.7852C270.826 39.3516 271.409 38.9209 271.743 38.4932C272.077 38.0654 272.288 37.6377 272.376 37.21C272.47 36.7764 272.423 36.3486 272.235 35.9268C272.054 35.499 271.807 35.1504 271.497 34.8809C271.186 34.6055 270.747 34.3506 270.179 34.1162C269.61 33.876 269.15 33.7324 268.799 33.6855C268.447 33.6328 267.949 33.583 267.305 33.5361C266.66 33.4834 265.658 33.4365 264.299 33.3955C263.631 33.3955 263.115 33.3984 262.752 33.4043C262.389 33.4043 262.046 33.3574 261.723 33.2637C261.401 33.1641 261.152 33.0293 260.976 32.8594C260.806 32.6836 260.719 32.502 260.713 32.3145C260.719 32.127 260.809 31.9453 260.985 31.7695C261.167 31.5879 261.419 31.4531 261.741 31.3652C262.069 31.2715 262.638 31.2012 263.446 31.1543C264.296 31.207 264.92 31.2803 265.318 31.374C265.722 31.4678 266.054 31.6084 266.311 31.7959C266.575 31.9834 266.868 32.3232 267.19 32.8154ZM276.803 29.6074V40.7959H291.937V37.9922L281.637 38.001V36.252L290.786 36.2695V33.9141H281.637V33.9053V32.2441H291.937V29.6074H276.803Z" fill="white"/>
</svg>
