<svg width="311" height="64" viewBox="0 0 311 64" fill="none" xmlns="http://www.w3.org/2000/svg">
<rect width="311" height="64" fill="white"/>
<path d="M83.9621 28.0435V36.1304H87.4152V33.3057H91.2683C91.8057 33.3184 92.0892 33.5278 92.1189 33.9341C92.1485 34.3361 92.1971 34.7466 92.2648 35.1655C92.3326 35.5845 92.7092 35.9061 93.3947 36.1304H96.8098C96.6024 35.9442 96.4966 35.7305 96.4924 35.4893C96.7759 33.5342 95.8576 32.5249 93.7375 32.4614V32.436C95.5741 32.2837 96.5622 31.5685 96.7019 30.2905C96.5834 28.9744 95.5043 28.2254 93.4646 28.0435H83.9621ZM92.0554 29.7827C92.6309 29.7827 92.9906 30.0874 93.1345 30.6968C93.0625 31.2469 92.7155 31.522 92.0935 31.522H87.4152V29.7827H92.0554ZM103.076 28.0498V36.1304H114.007V34.1055L106.567 34.1118V32.8486L113.175 32.8613V31.1602H106.567V31.1538V29.9541H114.007V28.0498H103.076ZM129.274 30.3667H133.178C133.081 29.952 132.842 29.5881 132.461 29.2749C132.08 28.9618 131.652 28.7036 131.179 28.5005C130.705 28.2931 129.953 28.1281 128.925 28.0054C127.897 27.8826 127.16 27.8213 126.716 27.8213C126.132 27.7874 125.334 27.8403 124.323 27.98C123.312 28.1196 122.482 28.3439 121.835 28.6528C121.192 28.9618 120.751 29.2918 120.514 29.6431C120.277 29.9901 120.159 30.3709 120.159 30.7856C120.159 31.2004 120.379 31.5897 120.819 31.9536C121.263 32.3175 121.888 32.5757 122.692 32.728C123.496 32.8804 124.941 32.984 127.027 33.0391C127.277 33.0306 127.516 33.0623 127.744 33.1343C127.977 33.202 128.159 33.3014 128.29 33.4326C128.422 33.5596 128.487 33.6908 128.487 33.8262C128.487 33.9574 128.422 34.0885 128.29 34.2197C128.163 34.3467 127.984 34.444 127.751 34.5117C127.518 34.5752 127.16 34.6429 126.678 34.7148C126.314 34.7064 126.007 34.6895 125.758 34.6641C125.508 34.6387 125.29 34.5815 125.104 34.4927C124.918 34.4038 124.746 34.2747 124.59 34.1055C124.433 33.932 124.338 33.7648 124.304 33.604H120.159C120.159 33.9002 120.252 34.1626 120.438 34.3911C120.629 34.6154 120.902 34.8587 121.257 35.1211C121.617 35.3792 121.993 35.5781 122.387 35.7178C122.781 35.8532 123.25 35.9632 123.796 36.0479C124.342 36.1325 125.146 36.2087 126.208 36.2764C127.165 36.2764 127.871 36.2594 128.328 36.2256C128.79 36.1917 129.251 36.124 129.712 36.0225C130.173 35.9167 130.702 35.7093 131.299 35.4004C131.9 35.0872 132.321 34.7762 132.562 34.4673C132.804 34.1584 132.956 33.8494 133.019 33.5405C133.087 33.2274 133.053 32.9185 132.918 32.6138C132.787 32.3049 132.609 32.0531 132.385 31.8584C132.16 31.6595 131.843 31.4754 131.432 31.3062C131.022 31.1326 130.69 31.029 130.436 30.9951C130.182 30.957 129.822 30.9211 129.357 30.8872C128.891 30.8491 128.168 30.8153 127.186 30.7856C126.703 30.7856 126.331 30.7878 126.069 30.792C125.806 30.792 125.559 30.7581 125.326 30.6904C125.093 30.6185 124.913 30.5212 124.786 30.3984C124.664 30.2715 124.6 30.1403 124.596 30.0049C124.6 29.8695 124.666 29.7383 124.793 29.6113C124.924 29.4801 125.106 29.3828 125.339 29.3193C125.576 29.2516 125.986 29.2008 126.57 29.167C127.184 29.2051 127.634 29.258 127.922 29.3257C128.214 29.3934 128.453 29.495 128.639 29.6304C128.83 29.7658 129.041 30.0112 129.274 30.3667ZM139.337 28.0498V36.1304H150.267V34.1055L142.828 34.1118V32.8486L149.436 32.8613V31.1602H142.828V31.1538V29.9541H150.267V28.0498H139.337ZM156.419 28.0435V36.1304H159.872V33.3057H163.725C164.263 33.3184 164.546 33.5278 164.576 33.9341C164.606 34.3361 164.654 34.7466 164.722 35.1655C164.79 35.5845 165.166 35.9061 165.852 36.1304H169.267C169.06 35.9442 168.954 35.7305 168.95 35.4893C169.233 33.5342 168.315 32.5249 166.195 32.4614V32.436C168.031 32.2837 169.019 31.5685 169.159 30.2905C169.041 28.9744 167.961 28.2254 165.922 28.0435H156.419ZM164.513 29.7827C165.088 29.7827 165.448 30.0874 165.592 30.6968C165.52 31.2469 165.173 31.522 164.551 31.522H159.872V29.7827H164.513ZM184.826 36.1304H179.945L175.533 28.0498H179.025L182.389 33.896L185.734 28.0498H189.225L184.826 36.1304ZM195.384 28.0498V36.1304H206.314V34.1055L198.875 34.1118V32.8486L205.483 32.8613V31.1602H198.875V31.1538V29.9541H206.314V28.0498H195.384ZM212.467 28.0498V36.1304H219.036C223.674 36.1938 226.008 34.7297 226.038 31.7378C225.89 29.4315 224.093 28.2021 220.649 28.0498H212.467ZM218.935 30.1001C221.199 30.1382 222.327 30.7243 222.318 31.8584C222.305 33.3014 221.269 34.0166 219.208 34.0039H216.136L216.142 30.1001H218.935Z" fill="black"/>
</svg>
