<svg width="88" height="16" viewBox="0 0 88 16" fill="none" xmlns="http://www.w3.org/2000/svg">
<path d="M0.153126 0.476562H23.6609V4.91797H15.3289V15.3945H8.2625V4.91797H0.153126V0.476562ZM43.7773 0.171875C46.0664 0.171875 48.2891 0.507813 50.4453 1.17969C52.6016 1.85156 54.293 2.80859 55.5195 4.05078C56.7461 5.29297 57.3594 6.59375 57.3594 7.95312C57.3594 9.30469 56.7617 10.5977 55.5664 11.832C54.3789 13.0586 52.7031 14.0156 50.5391 14.7031C48.3828 15.3906 46.1289 15.7344 43.7773 15.7344C41.4414 15.7344 39.1953 15.3906 37.0391 14.7031C34.8828 14.0156 33.207 13.0586 32.0117 11.832C30.8164 10.5977 30.2188 9.30469 30.2188 7.95312C30.2188 6.59375 30.8242 5.29297 32.0352 4.05078C33.2539 2.80859 34.9453 1.85156 37.1094 1.17969C39.2734 0.507813 41.4961 0.171875 43.7773 0.171875ZM43.9531 3.99219C42.875 3.99219 41.832 4.17188 40.8242 4.53125C39.8164 4.88281 39.0273 5.37891 38.457 6.01953C37.8867 6.66016 37.6016 7.33594 37.6016 8.04688C37.6016 8.75 37.8789 9.42188 38.4336 10.0625C38.9961 10.6953 39.7852 11.1914 40.8008 11.5508C41.8164 11.9102 42.8672 12.0898 43.9531 12.0898C45.0391 12.0898 46.0898 11.9102 47.1055 11.5508C48.1211 11.1914 48.9062 10.6953 49.4609 10.0625C50.0156 9.42188 50.293 8.75 50.293 8.04688C50.293 7.33594 50.0039 6.66016 49.4258 6.01953C48.8555 5.37891 48.0664 4.88281 47.0586 4.53125C46.0508 4.17188 45.0156 3.99219 43.9531 3.99219ZM79.4914 3.75781C80.6555 3.77344 81.3977 4.05078 81.718 4.58984C82.0461 5.12891 82.0461 5.67188 81.718 6.21875C81.3977 6.75781 80.5969 7.03516 79.3156 7.05078H70.9484V5.39844V3.75781H79.4914ZM63.9172 0.476562V15.3945H70.9484V10.6484H81.7414C83.0461 10.5625 84.0578 10.3789 84.7766 10.0977C85.5031 9.80859 86.1477 9.39062 86.7102 8.84375C87.2805 8.28906 87.6125 7.59766 87.7063 6.76953C87.8 5.94141 87.8156 5.18359 87.7531 4.49609C87.6906 3.80859 87.4055 3.21484 86.8977 2.71484C86.3977 2.21484 85.7727 1.79297 85.0227 1.44922C84.2727 1.10547 83.5695 0.890625 82.9133 0.804688C82.2648 0.710938 81.4328 0.601563 80.4172 0.476562H63.9172Z" fill="white"/>
</svg>
