<svg width="166" height="16" viewBox="0 0 166 16" fill="none" xmlns="http://www.w3.org/2000/svg">
<path d="M0.441406 0.476562H23.9492V4.91797H15.6172V15.3945H8.55078V4.91797H0.441406V0.476562ZM44.0656 0.171875C46.3547 0.171875 48.5773 0.507813 50.7336 1.17969C52.8898 1.85156 54.5812 2.80859 55.8078 4.05078C57.0344 5.29297 57.6477 6.59375 57.6477 7.95312C57.6477 9.30469 57.05 10.5977 55.8547 11.832C54.6672 13.0586 52.9914 14.0156 50.8273 14.7031C48.6711 15.3906 46.4172 15.7344 44.0656 15.7344C41.7297 15.7344 39.4836 15.3906 37.3273 14.7031C35.1711 14.0156 33.4953 13.0586 32.3 11.832C31.1047 10.5977 30.507 9.30469 30.507 7.95312C30.507 6.59375 31.1125 5.29297 32.3234 4.05078C33.5422 2.80859 35.2336 1.85156 37.3977 1.17969C39.5617 0.507813 41.7844 0.171875 44.0656 0.171875ZM44.2414 3.99219C43.1633 3.99219 42.1203 4.17188 41.1125 4.53125C40.1047 4.88281 39.3156 5.37891 38.7453 6.01953C38.175 6.66016 37.8898 7.33594 37.8898 8.04688C37.8898 8.75 38.1672 9.42188 38.7219 10.0625C39.2844 10.6953 40.0734 11.1914 41.0891 11.5508C42.1047 11.9102 43.1555 12.0898 44.2414 12.0898C45.3273 12.0898 46.3781 11.9102 47.3937 11.5508C48.4094 11.1914 49.1945 10.6953 49.7492 10.0625C50.3039 9.42188 50.5812 8.75 50.5812 8.04688C50.5812 7.33594 50.2922 6.66016 49.7141 6.01953C49.1437 5.37891 48.3547 4.88281 47.3469 4.53125C46.3391 4.17188 45.3039 3.99219 44.2414 3.99219ZM79.7797 3.75781C80.9437 3.77344 81.6859 4.05078 82.0062 4.58984C82.3344 5.12891 82.3344 5.67188 82.0062 6.21875C81.6859 6.75781 80.8852 7.03516 79.6039 7.05078H71.2367V5.39844V3.75781H79.7797ZM64.2055 0.476562V15.3945H71.2367V10.6484H82.0297C83.3344 10.5625 84.3461 10.3789 85.0648 10.0977C85.7914 9.80859 86.4359 9.39062 86.9984 8.84375C87.5687 8.28906 87.9008 7.59766 87.9945 6.76953C88.0883 5.94141 88.1039 5.18359 88.0414 4.49609C87.9789 3.80859 87.6937 3.21484 87.1859 2.71484C86.6859 2.21484 86.0609 1.79297 85.3109 1.44922C84.5609 1.10547 83.8578 0.890625 83.2016 0.804688C82.5531 0.710938 81.7211 0.601563 80.7055 0.476562H64.2055ZM94.693 0.476562V15.3945H101.654V0.476562H94.693ZM108.212 8.1875C108.579 13.1094 113.005 15.5703 121.489 15.5703C129.286 15.5703 133.762 13.4023 134.919 9.06641H128.169C127.786 10.1523 126.93 10.9414 125.602 11.4336C124.282 11.918 122.911 12.1602 121.489 12.1602C120.13 12.1602 118.794 11.8516 117.481 11.2344C116.177 10.6172 115.52 9.58594 115.512 8.14062C115.637 6.53125 116.325 5.4375 117.575 4.85938C118.825 4.28125 120.13 3.99219 121.489 3.99219C122.911 3.99219 124.282 4.18359 125.602 4.56641C126.93 4.94141 127.704 5.59375 127.923 6.52344H134.954C133.68 2.34375 129.192 0.253906 121.489 0.253906C113.005 0.253906 108.579 2.89844 108.212 8.1875ZM158.34 4.75391H165.547C165.367 3.98828 164.926 3.31641 164.223 2.73828C163.52 2.16016 162.73 1.68359 161.855 1.30859C160.98 0.925781 159.594 0.621094 157.695 0.394531C155.797 0.167969 154.438 0.0546875 153.617 0.0546875C152.539 -0.0078125 151.066 0.0898438 149.199 0.347656C147.332 0.605469 145.801 1.01953 144.605 1.58984C143.418 2.16016 142.605 2.76953 142.168 3.41797C141.73 4.05859 141.512 4.76172 141.512 5.52734C141.512 6.29297 141.918 7.01172 142.73 7.68359C143.551 8.35547 144.703 8.83203 146.188 9.11328C147.672 9.39453 150.34 9.58594 154.191 9.6875C154.652 9.67188 155.094 9.73047 155.516 9.86328C155.945 9.98828 156.281 10.1719 156.523 10.4141C156.766 10.6484 156.887 10.8906 156.887 11.1406C156.887 11.3828 156.766 11.625 156.523 11.8672C156.289 12.1016 155.957 12.2812 155.527 12.4062C155.098 12.5234 154.438 12.6484 153.547 12.7812C152.875 12.7656 152.309 12.7344 151.848 12.6875C151.387 12.6406 150.984 12.5352 150.641 12.3711C150.297 12.207 149.98 11.9688 149.691 11.6562C149.402 11.3359 149.227 11.0273 149.164 10.7305H141.512C141.512 11.2773 141.684 11.7617 142.027 12.1836C142.379 12.5977 142.883 13.0469 143.539 13.5312C144.203 14.0078 144.898 14.375 145.625 14.6328C146.352 14.8828 147.219 15.0859 148.227 15.2422C149.234 15.3984 150.719 15.5391 152.68 15.6641C154.445 15.6641 155.75 15.6328 156.594 15.5703C157.445 15.5078 158.297 15.3828 159.148 15.1953C160 15 160.977 14.6172 162.078 14.0469C163.188 13.4688 163.965 12.8945 164.41 12.3242C164.855 11.7539 165.137 11.1836 165.254 10.6133C165.379 10.0352 165.316 9.46484 165.066 8.90234C164.824 8.33203 164.496 7.86719 164.082 7.50781C163.668 7.14062 163.082 6.80078 162.324 6.48828C161.566 6.16797 160.953 5.97656 160.484 5.91406C160.016 5.84375 159.352 5.77734 158.492 5.71484C157.633 5.64453 156.297 5.58203 154.484 5.52734C153.594 5.52734 152.906 5.53125 152.422 5.53906C151.938 5.53906 151.48 5.47656 151.051 5.35156C150.621 5.21875 150.289 5.03906 150.055 4.8125C149.828 4.57812 149.711 4.33594 149.703 4.08594C149.711 3.83594 149.832 3.59375 150.066 3.35938C150.309 3.11719 150.645 2.9375 151.074 2.82031C151.512 2.69531 152.27 2.60156 153.348 2.53906C154.48 2.60938 155.312 2.70703 155.844 2.83203C156.383 2.95703 156.824 3.14453 157.168 3.39453C157.52 3.64453 157.91 4.09766 158.34 4.75391Z" fill="white"/>
</svg>
