<svg width="139" height="14" viewBox="0 0 139 14" fill="none" xmlns="http://www.w3.org/2000/svg">
<path d="M0.701172 1.23047H20.291V4.93164H13.3477V13.6621H7.45898V4.93164H0.701172V1.23047ZM37.0547 0.976562C38.9622 0.976562 40.8145 1.25651 42.6113 1.81641C44.4082 2.3763 45.8177 3.17383 46.8398 4.20898C47.862 5.24414 48.373 6.32812 48.373 7.46094C48.373 8.58724 47.875 9.66471 46.8789 10.6934C45.8893 11.7155 44.4928 12.513 42.6895 13.0859C40.8926 13.6589 39.0143 13.9453 37.0547 13.9453C35.1081 13.9453 33.2363 13.6589 31.4395 13.0859C29.6426 12.513 28.2461 11.7155 27.25 10.6934C26.2539 9.66471 25.7559 8.58724 25.7559 7.46094C25.7559 6.32812 26.2604 5.24414 27.2695 4.20898C28.2852 3.17383 29.6947 2.3763 31.498 1.81641C33.3014 1.25651 35.1536 0.976562 37.0547 0.976562ZM37.2012 4.16016C36.3027 4.16016 35.4336 4.3099 34.5938 4.60938C33.7539 4.90234 33.0964 5.31576 32.6211 5.84961C32.1458 6.38346 31.9082 6.94661 31.9082 7.53906C31.9082 8.125 32.1393 8.6849 32.6016 9.21875C33.0703 9.74609 33.7279 10.1595 34.5742 10.459C35.4206 10.7585 36.2962 10.9082 37.2012 10.9082C38.1061 10.9082 38.9818 10.7585 39.8281 10.459C40.6745 10.1595 41.3288 9.74609 41.791 9.21875C42.2533 8.6849 42.4844 8.125 42.4844 7.53906C42.4844 6.94661 42.2435 6.38346 41.7617 5.84961C41.2865 5.31576 40.6289 4.90234 39.7891 4.60938C38.9492 4.3099 38.0866 4.16016 37.2012 4.16016ZM66.8164 3.96484C67.7865 3.97786 68.4049 4.20898 68.6719 4.6582C68.9453 5.10742 68.9453 5.5599 68.6719 6.01562C68.4049 6.46484 67.7376 6.69596 66.6699 6.70898H59.6973V5.33203V3.96484H66.8164ZM53.8379 1.23047V13.6621H59.6973V9.70703H68.6914C69.7786 9.63542 70.6217 9.48242 71.2207 9.24805C71.8262 9.00716 72.3633 8.65885 72.832 8.20312C73.3073 7.74089 73.584 7.16471 73.6621 6.47461C73.7402 5.78451 73.7533 5.15299 73.7012 4.58008C73.6491 4.00716 73.4115 3.51237 72.9883 3.0957C72.5716 2.67904 72.0508 2.32747 71.4258 2.04102C70.8008 1.75456 70.2148 1.57552 69.668 1.50391C69.1276 1.42578 68.4342 1.33464 67.5879 1.23047H53.8379ZM79.2441 1.23047V13.6621H85.0449V1.23047H79.2441ZM90.5098 7.65625C90.8158 11.7578 94.5039 13.8086 101.574 13.8086C108.072 13.8086 111.802 12.002 112.766 8.38867H107.141C106.822 9.29362 106.109 9.95117 105.002 10.3613C103.902 10.765 102.759 10.9668 101.574 10.9668C100.441 10.9668 99.3281 10.7096 98.2344 10.1953C97.1471 9.68099 96.6003 8.82161 96.5938 7.61719C96.6979 6.27604 97.2708 5.36458 98.3125 4.88281C99.3542 4.40104 100.441 4.16016 101.574 4.16016C102.759 4.16016 103.902 4.31966 105.002 4.63867C106.109 4.95117 106.753 5.49479 106.936 6.26953H112.795C111.734 2.78646 107.993 1.04492 101.574 1.04492C94.5039 1.04492 90.8158 3.2487 90.5098 7.65625ZM132.283 4.79492H138.289C138.139 4.1569 137.771 3.59701 137.186 3.11523C136.6 2.63346 135.942 2.23633 135.213 1.92383C134.484 1.60482 133.328 1.35091 131.746 1.16211C130.164 0.973307 129.031 0.878906 128.348 0.878906C127.449 0.826823 126.222 0.908203 124.666 1.12305C123.11 1.33789 121.834 1.68294 120.838 2.1582C119.848 2.63346 119.171 3.14128 118.807 3.68164C118.442 4.21549 118.26 4.80143 118.26 5.43945C118.26 6.07747 118.598 6.67643 119.275 7.23633C119.959 7.79622 120.919 8.19336 122.156 8.42773C123.393 8.66211 125.617 8.82161 128.826 8.90625C129.21 8.89323 129.578 8.94206 129.93 9.05273C130.288 9.1569 130.568 9.3099 130.77 9.51172C130.971 9.70703 131.072 9.90885 131.072 10.1172C131.072 10.319 130.971 10.5208 130.77 10.7227C130.574 10.918 130.298 11.0677 129.939 11.1719C129.581 11.2695 129.031 11.3737 128.289 11.4844C127.729 11.4714 127.257 11.4453 126.873 11.4062C126.489 11.3672 126.154 11.2793 125.867 11.1426C125.581 11.0059 125.317 10.8073 125.076 10.5469C124.835 10.2799 124.689 10.0228 124.637 9.77539H118.26C118.26 10.2311 118.403 10.6348 118.689 10.9863C118.982 11.3314 119.402 11.7057 119.949 12.1094C120.503 12.5065 121.082 12.8125 121.688 13.0273C122.293 13.2357 123.016 13.4049 123.855 13.5352C124.695 13.6654 125.932 13.7826 127.566 13.8867C129.038 13.8867 130.125 13.8607 130.828 13.8086C131.538 13.7565 132.247 13.6523 132.957 13.4961C133.667 13.3333 134.48 13.0143 135.398 12.5391C136.323 12.0573 136.971 11.5788 137.342 11.1035C137.713 10.6283 137.947 10.153 138.045 9.67773C138.149 9.19596 138.097 8.7207 137.889 8.25195C137.687 7.77669 137.413 7.38932 137.068 7.08984C136.723 6.78385 136.235 6.50065 135.604 6.24023C134.972 5.97331 134.461 5.8138 134.07 5.76172C133.68 5.70312 133.126 5.64779 132.41 5.5957C131.694 5.53711 130.581 5.48503 129.07 5.43945C128.328 5.43945 127.755 5.44271 127.352 5.44922C126.948 5.44922 126.567 5.39714 126.209 5.29297C125.851 5.18229 125.574 5.03255 125.379 4.84375C125.19 4.64844 125.092 4.44661 125.086 4.23828C125.092 4.02995 125.193 3.82812 125.389 3.63281C125.59 3.43099 125.87 3.28125 126.229 3.18359C126.593 3.07943 127.225 3.0013 128.123 2.94922C129.067 3.00781 129.76 3.08919 130.203 3.19336C130.652 3.29753 131.02 3.45378 131.307 3.66211C131.6 3.87044 131.925 4.24805 132.283 4.79492Z" fill="white"/>
</svg>
